<?xml version="1.0" standalone="no"?>
<!DOCTYPE svg PUBLIC "-//W3C//DTD SVG 1.1//EN" "http://www.w3.org/Graphics/SVG/1.1/DTD/svg11.dtd" >
<svg>
<metadata>
Created by FontForge 20110222 at Mon Mar  7 08:37:13 2011
 By www-data
1998 by Boba Fonts - Davide Canavero - canavero@pianeta.net
</metadata>
<defs>
<font id="StarJediHollow" horiz-adv-x="0" >
  <font-face 
    font-family="Star Jedi Hollow"
    font-weight="400"
    font-stretch="normal"
    units-per-em="2048"
    panose-1="4 11 0 0 0 0 0 0 0 0"
    ascent="1638"
    descent="-410"
    x-height="1444"
    cap-height="1444"
    bbox="-1936 -708 5371 2554"
    underline-thickness="50"
    underline-position="-75"
    unicode-range="U+0020-2020"
  />
    <missing-glyph />
    <glyph glyph-name="grave" unicode="`" horiz-adv-x="1615" 
d="M-20 1014v430h1212l483 -1444h-546l-91 260h-429l-91 -260h-518l333 1014h-353zM84 60h394l93 260h515l94 -260h413l-440 1324h-1113v-310h382zM708 612h238l-110 322zM835 1145l205 -593h-426z" />
    <glyph glyph-name="one" unicode="1" horiz-adv-x="1065" 
d="M119 705l-146 376l539 363h440v-1444h-516v938zM524 1384l-484 -327l106 -270l307 226l43 -43v-910h396v1324h-368z" />
    <glyph glyph-name="two" unicode="2" horiz-adv-x="1212" 
d="M586 348h585v-348h-1130v406q236 118 418 235q91 63 143.5 124t52.5 142q0 104 -77 152.5t-189 48.5q-177 0 -319 -61v376q114 21 226 33t226 12q275 0 462 -108t187 -365q0 -117 -52.5 -215t-135.5 -173.5t-171 -129.5t-226 -125v-4zM130 1375v-250q83 38 259 43
q143 -6 228 -65t98 -196q-11 -107 -69 -173t-157 -132q-187 -124 -388 -227v-315h1010v228h-593v105q186 83 266 137t156 120t123 148.5t48 196.5q-19 225 -179 317t-410 96q-113 0 -392 -33z" />
    <glyph glyph-name="three" unicode="3" horiz-adv-x="1212" 
d="M223 567v316q78 -4 115 -4q70 0 126 6t102 33t46 83q0 79 -61 112.5t-148 33.5t-179.5 -17t-166.5 -40v323q95 30 210 42.5t261 12.5q112 0 219 -22t199 -69.5t147.5 -126.5t55.5 -187q0 -246 -275 -326v-4q295 -77 295 -334q0 -148 -91.5 -243t-234.5 -138t-304 -43
q-123 0 -261.5 16.5t-234.5 43.5v336q70 -24 169.5 -42t190.5 -18q109 0 169.5 27.5t60.5 101.5q0 82 -70.5 112t-163.5 30q-63 0 -176 -15zM118 1360v-192q38 14 122 27.5t161 11.5q127 1 200.5 -53.5t70.5 -152.5q-2 -85 -66 -126t-127.5 -47t-140.5 -10q-34 -2 -55 0
v-183q54 9 116 7q121 0 203 -48.5t91 -153.5q-5 -104 -85 -144t-205 -45q-87 -1 -187 22.5t-113 25.5v-214q49 -17 183.5 -34.5t252.5 -15.5q166 3 290.5 44t196.5 116t83 204q-5 224 -295 289v99q270 57 275 275q-3 94 -52 162t-129 105t-174.5 58t-205.5 21
q-142 4 -251 -11t-159 -37z" />
    <glyph glyph-name="four" unicode="4" horiz-adv-x="1442" 
d="M362 560l468 531v-531h-468zM1100 520v864h-264l-744 -836v-212h780v-276h228v276h248v184h-248zM1158 584h251v-308h-252v-276h-347v276h-777v308l777 860h347zM512 624h254v285z" />
    <glyph glyph-name="five" unicode="5" horiz-adv-x="1212" 
d="M1104 1444v-336h-539v-223q55 6 160 6q120 0 222 -54t162 -155t60 -233q0 -176 -93 -281.5t-239 -149t-321 -43.5q-62 0 -141 7t-152.5 21t-146.5 34v330q183 -43 301 -43q256 0 256 163q0 100 -83.5 138.5t-199.5 38.5q-117 0 -256 -33v813h1010zM136 92
q21 -9 94.5 -26.5t150.5 -23.5t135 -8q162 4 297 47t211 122t84 247q0 118 -52 202t-139 133t-193 47q-104 4 -218 -8v58v286h538v216h-890v-684q86 20 196 24q164 -4 250 -57t92 -179q-10 -214 -314 -224q-124 -4 -242 24v-196z" />
    <glyph glyph-name="six" unicode="6" horiz-adv-x="1401" 
d="M1177 1382q-125 31 -377 26q-208 -2 -364 -80t-247 -240.5t-96 -397.5q8 -198 88.5 -343t228 -224.5t325.5 -87.5q149 5 280 57.5t209 145.5t85 244q-5 130 -68 220.5t-154.5 138t-215.5 43.5q-109 -3 -177 -21t-124 -65h-81q-8 234 112.5 318.5t280.5 90.5
q59 3 111.5 -0.5t87 -10.5t58.5 -13.5t38 -10.5v210zM941 486q0 -104 -61 -172t-162 -68q-102 0 -159.5 64.5t-57.5 161.5q0 115 55.5 179.5t161.5 64.5q104 0 163.5 -62.5t59.5 -167.5zM1237 1430v-334q-25 6 -72.5 18t-83 18t-88 10.5t-112.5 4.5q-140 0 -236 -68
t-96 -221q51 42 130.5 65t190.5 23q130 0 244.5 -54.5t184 -159.5t69.5 -249q0 -169 -89.5 -283.5t-234 -169.5t-309.5 -55q-205 0 -366 91t-248.5 254t-87.5 370q0 248 98 424t272 265t397 89q255 0 437 -38zM877 485q0 81 -43 128t-117 47q-77 0 -116.5 -48.5
t-39.5 -136.5q0 -75 41 -124t115 -49q72 0 116 52t44 131z" />
    <glyph glyph-name="seven" unicode="7" horiz-adv-x="1212" 
d="M25 1444h1163v-397l-514 -1047h-615l609 1047h-643v397zM85 1384v-277h643v-76l-566 -971h485l481 1005v319h-1043z" />
    <glyph glyph-name="eight" unicode="8" horiz-adv-x="1401" 
d="M84 386q24 -130 108 -196t216 -102t290 -52q138 8 242 32t190 62t132 102t54 154q-20 122 -82 192t-206 114v96q140 44 190 104t62 180q-12 128 -88 196t-204 100t-290 40q-122 -12 -222 -30t-186 -60t-126 -100t-54 -144q10 -90 32 -138t74 -82t164 -66v-84
q-272 -52 -296 -318zM904 473q0 -106 -51.5 -173t-155.5 -67t-152 65.5t-48 169.5q0 105 47.5 168t152.5 63q104 0 155.5 -62.5t51.5 -163.5zM517 1040q0 77 48 130.5t133 53.5q81 0 128 -54.5t47 -133.5q0 -83 -47 -137.5t-128 -54.5q-86 1 -133.5 55t-47.5 141zM25 385
q0 282 286 350v4q-89 30 -146.5 71.5t-86.5 106.5t-29 156q0 112 55.5 188.5t150 122t207.5 65t236 19.5q172 0 316.5 -36.5t235.5 -125t91 -233.5q0 -133 -65.5 -211t-192.5 -125v2v-4q132 -33 212.5 -120.5t80.5 -229.5q0 -114 -59.5 -194t-156.5 -127t-218 -68t-244 -21
q-167 0 -320 39t-253 130t-100 241zM848 477q0 76 -37 123t-113 47t-110.5 -47.5t-34.5 -126.5q0 -77 35 -126.5t110 -49.5q76 0 113 50t37 130zM577 1040q0 -63 31.5 -102t88.5 -40q54 0 85.5 39.5t31.5 98.5q0 58 -31.5 97t-85.5 39q-56 0 -88 -38.5t-32 -93.5z" />
    <glyph glyph-name="nine" unicode="9" horiz-adv-x="1401" 
d="M223 62q125 -31 377 -26q208 2 364 80t247 240.5t96 397.5q-8 198 -88.5 343t-228 224.5t-325.5 87.5q-149 -5 -280 -57.5t-209 -145.5t-85 -244q5 -130 68 -220.5t154.5 -138t215.5 -43.5q109 3 177 21t124 65h81q8 -234 -112.5 -318.5t-280.5 -90.5q-59 -3 -111.5 0.5
t-87 10.5t-58.5 13.5t-38 10.5v-210zM459 958q0 104 61 172t162 68q102 0 159.5 -64.5t57.5 -161.5q0 -115 -55.5 -179.5t-161.5 -64.5q-104 0 -163.5 62.5t-59.5 167.5zM163 14v334q25 -6 72.5 -18t83 -18t88 -10.5t112.5 -4.5q140 0 236 68t96 221q-51 -42 -130.5 -65
t-190.5 -23q-130 0 -244.5 54.5t-184 159.5t-69.5 249q0 169 89.5 283.5t234 169.5t309.5 55q205 0 366 -91t248.5 -254t87.5 -370q0 -248 -98 -424t-272 -265t-397 -89q-255 0 -437 38zM523 959q0 -81 43 -128t117 -47q77 0 116.5 48.5t39.5 136.5q0 75 -41 124t-115 49
q-72 0 -116 -52t-44 -131z" />
    <glyph glyph-name="zero" unicode="0" horiz-adv-x="1516" 
d="M115 725q0 -202 75 -358t222 -242t351 -86t350.5 85t220 239.5t73.5 361.5q0 154 -44 280t-128 217t-204 139.5t-268 48.5q-158 0 -279 -50.5t-203 -143.5t-124 -218t-42 -273zM556 721q0 161 9 249.5t54 147t141 58.5q92 0 136 -58t53.5 -147t9.5 -250q0 -152 -9.5 -241
t-54 -150t-135.5 -61q-73 0 -116 37t-61.5 96.5t-22.5 131.5t-4 187zM47 721q0 162 46.5 298.5t137 238t223.5 156t306 54.5q163 0 294.5 -52t224 -151.5t141 -237t48.5 -306.5q0 -225 -81 -393.5t-241.5 -260.5t-385.5 -92q-224 0 -385.5 93.5t-244.5 263.5t-83 389z
M623 724q0 -97 2.5 -160t15 -114.5t42 -84t77.5 -32.5q65 0 95 53t35.5 130.5t5.5 209.5q0 138 -5.5 216.5t-35 127.5t-95.5 49q-64 0 -94.5 -49.5t-36.5 -127.5t-6 -218z" />
    <glyph glyph-name="hyphen" unicode="-" horiz-adv-x="758" 
d="M152 437h454v240h-454v-240zM92 377v360h574v-360h-574z" />
    <glyph glyph-name="equal" unicode="=" horiz-adv-x="1456" 
d="M0 430h1516v-60h-1516v60zM1516 0h-1516v60h1516v-60z" />
    <glyph glyph-name="q" unicode="q" horiz-adv-x="1639" 
d="M1639 430v-430l-859 -25q-185 5 -326.5 53t-241.5 143.5t-151 233.5t-51 316q0 182 53 312.5t155 226.5t246 144t368 54q228 -6 402 -70t284 -212t98 -440q-24 -132 -96 -231t77 -75h42zM1556 736q18 208 -58.5 355t-250 226t-412.5 79q-180 0 -322 -45t-240 -131
t-148.5 -212.5t-54.5 -292.5q4 -220 92.5 -372t260.5 -230t412 -78l744 25v310q-177 10 -149 83t62 119t64 164zM499 703q0 363 330 363q210 0 275 -109.5t72 -253.5q-7 -105 -29.5 -212.5t-317.5 -77.5v-76q-197 0 -263.5 109t-66.5 257zM551 702q0 -123 55 -216t218 -93
v64q244 -24 263 66.5t24 178.5q-5 124 -59 216t-228 92q-273 0 -273 -308z" />
    <glyph glyph-name="w" unicode="w" horiz-adv-x="2003" 
d="M1062 612l-152 -612h-470l-440 1444h470l198 -624l172 624h432l201 -624l134 624h470l-362 -1444h-470zM76 1384l414 -1324h374l158 611h82l187 -611h380l333 1324h-349l-148 -624h-67l-209 624h-340l-180 -624h-86l-198 624h-351z" />
    <glyph glyph-name="e" unicode="e" horiz-adv-x="1360" 
d="M60 0v1444h1238v-430h-768v-166h496v-252h-496v-166h830v-430h-1300zM120 1384v-1324h1180v310h-830v284h496v134h-496v286h768v310h-1118z" />
    <glyph glyph-name="r" unicode="r" horiz-adv-x="1550" 
d="M60 0v1444h940q174 -16 279 -86t143 -135t54 -159t-21 -205t-127 -181t-258 -110l108 -138h372v-430h-510l-458 477v-477h-522zM120 60h402v477h97l456 -477h415v310h-347l-133 163v84q206 42 281.5 105t107 154t20 174t-43 137.5t-126.5 118.5t-249 78h-880v-1324z
M557 1109h404q27 0 66 -31.5t46 -130.5q-4 -103 -41.5 -129t-69.5 -26h-405v317zM619 1051v-204h309q24 0 53.5 16.5t31.5 84.5q-5 62 -35.5 82.5t-50.5 20.5h-308z" />
    <glyph glyph-name="t" unicode="t" horiz-adv-x="1266" 
d="M1266 1444v-430h-398v-1014h-470v1014h-398v430h1266zM60 1384v-310h398v-1014h350v1014h398v310h-1146z" />
    <glyph glyph-name="y" unicode="y" horiz-adv-x="1614" 
d="M1732 1444l-630 -914v-530h-472v530l-630 914h570l294 -446l298 446h570zM116 1384l576 -836v-488h352v488l578 836h-420l-303 -446h-65l-296 446h-422z" />
    <glyph glyph-name="u" unicode="u" horiz-adv-x="1494" 
d="M530 1444v-854q-6 -146 56 -203t194 -61q106 2 177 62t67 202v854h470v-847q-3 -180 -59.5 -287.5t-143 -179.5t-217 -112t-290.5 -44q-133 3 -270.5 36.5t-240 105.5t-158 185t-55.5 295v848h470zM120 1384v-788q10 -178 55 -267t136 -157t219 -101t254 -37
q150 6 274 45t199 104t124 154t53 260v787h-350v-794q6 -152 -66 -231t-238 -93q-174 6 -244 84t-66 240v794h-350z" />
    <glyph glyph-name="i" unicode="i" horiz-adv-x="530" 
d="M60 1444h470v-1444h-470v1444zM120 1384v-1324h350v1324h-350z" />
    <glyph glyph-name="o" unicode="o" horiz-adv-x="1677" 
d="M1608 714q-4 218 -95.5 371t-265 232t-412.5 79q-180 0 -322 -45t-240 -131t-148.5 -212.5t-54.5 -292.5q4 -220 92.5 -372t260.5 -230t412 -78t413 77.5t264.5 231t95.5 370.5zM1668 714q0 -237 -99 -404t-286.5 -251t-447.5 -84t-446.5 84.5t-282.5 250t-96 404.5
q0 181 55 318.5t161 231.5t260 142.5t349 48.5q259 0 447 -85.5t287 -252t99 -403.5zM486 712q0 380 340 380q216 0 283 -113.5t75 -266.5q-8 -107 -27 -183.5t-96.5 -136t-234.5 -59.5q-202 0 -271 113.5t-69 265.5zM551 709q0 -127 56 -221.5t223 -94.5q128 0 192 50
t80 113t21 153q-5 127 -60.5 221t-232.5 94q-279 0 -279 -315z" />
    <glyph glyph-name="p" unicode="p" horiz-adv-x="1501" 
d="M60 0v1444h940q174 -22 281 -90t151 -166t52 -167t4 -136t-29 -136t-135 -157t-290 -115h-452v-477h-522zM557 1109h404q27 0 66 -31.5t46 -130.5q-4 -103 -41.5 -129t-69.5 -26h-405v317zM120 60h402v477h512q170 35 260 110t120 175t13 189t-48 155t-122 132t-257 86
h-880v-1324zM619 1051v-204h309q24 0 53.5 16.5t31.5 84.5q-5 62 -35.5 82.5t-50.5 20.5h-308z" />
    <glyph glyph-name="bracketleft" unicode="[" 
d="M60 1444h-300v-430h300v60h-240v310h240v60z" />
    <glyph glyph-name="bracketright" unicode="]" 
d="M0 1444h300v-430h-300v60h240v310h-240v60z" />
    <glyph glyph-name="backslash" unicode="\" 
d="M1636 -82h300v-430h-300v60h240v310h-240v60z" />
    <glyph glyph-name="a" unicode="a" horiz-adv-x="1615" 
d="M0 0l475 1444h717l483 -1444h-546l-91 260h-429l-91 -260h-518zM835 1145l205 -593h-426zM84 60h394l93 260h515l94 -260h413l-440 1324h-628zM708 612h238l-110 322z" />
    <glyph glyph-name="s" unicode="s" horiz-adv-x="1135" 
d="M1135 1444v-430h-291q-257 8 -76 -142q324 -284 318 -552t-318 -320h-768v430h304q283 -8 72 158q-348 320 -296 588t328 268h727zM60 370v-310h708q264 56 256 288t-352 524q-160 208 172 202h231v310h-667q-208 -4 -262 -222t286 -534q252 -248 -128 -258h-244z" />
    <glyph glyph-name="d" unicode="d" horiz-adv-x="1662" 
d="M60 0v1444h852q173 0 306.5 -43t223 -124t150 -214t60.5 -341q-11 -202 -66 -340t-146 -218t-222.5 -124t-329.5 -40h-828zM514 1114h302q105 0 170 -41.5t106.5 -115.5t45.5 -229q-12 -169 -51.5 -234.5t-102.5 -107.5t-166 -42h-304v770zM120 60h768q240 6 343 47
t171 104t126 186t64 325q-8 194 -29 251t-54 122t-103 133t-195 114t-299 42h-792v-1324zM574 1054l1 -650h243q103 3 151 41t72.5 82t36.5 201q-9 132 -36 188.5t-76.5 96t-149.5 41.5h-242z" />
    <glyph glyph-name="f" unicode="f" horiz-adv-x="1298" 
d="M60 0v1444h1238v-430h-768v-166h496v-252h-496v-596h-470zM120 1384v-1324h350v594h496v134h-496v286h768v310h-1118z" />
    <glyph glyph-name="g" unicode="g" horiz-adv-x="1484" 
d="M1424 1074v310h-580q-164 -2 -300 -39t-241 -119t-167 -202t-66 -281q-2 -227 102 -379t280 -226t392 -78h580v602h-332v-292h-60q-136 -2 -216 7t-158 30t-131 93t-62 218q11 168 68 225t122 83t144.5 35.5t232.5 12.5h392zM1484 1444v-430h-452q-152 0 -225 -9
t-130 -30t-101 -73t-51 -184q5 -128 51 -183t112 -73t136 -25t208 -7v292h452v-722h-640q-235 0 -425 83.5t-299.5 250.5t-109.5 409q0 170 65.5 303.5t181.5 222t266.5 132t320.5 43.5h640z" />
    <glyph glyph-name="h" unicode="h" horiz-adv-x="1378" 
d="M908 946v498h470v-1444h-470v520h-378v-520h-470v1444h470v-498h378zM120 1384v-1324h350v520h498v-520h350v1324h-350v-498h-498v498h-350z" />
    <glyph glyph-name="j" unicode="j" horiz-adv-x="856" 
d="M856 1444v-430h-60v-560q-6 -166 -48 -228t-123 -121t-221 -91q-136 -10 -221 -11t-183 -3v430q78 -20 176 0q78 18 108 42t42 114v858h530zM386 1384v-798q-13 -114 -65 -152t-145 -60q-59 -16 -116 -10v-304q209 -2 344 14q134 28 206.5 86t99 113.5t26.5 180.5v620h60
v310h-410z" />
    <glyph glyph-name="k" unicode="k" horiz-adv-x="1404" 
d="M530 1444v-470l330 470h470l-538 -722l240 -292h372v-430h-510l-364 430v-430h-470v1444h470zM120 1384v-1324h350v430h83l371 -430h420v310h-341l-271 326v51l483 637h-324l-320 -470h-101v470h-350z" />
    <glyph glyph-name="l" unicode="l" horiz-adv-x="1312" 
d="M60 0v1444h470v-1014h782v-430h-1252zM120 1384v-1324h1132v310h-782v1014h-350z" />
    <glyph glyph-name="semicolon" unicode=";" horiz-adv-x="1440" 
d="M478 738q8 -120 52 -180t105 -95t185 -51q128 8 184 34t128 86l284 -316q-124 -116 -246 -160t-354 -56q-224 12 -339 65.5t-227.5 142t-176 222t-63.5 309.5q0 174 63.5 307.5t172 222.5t227.5 142t343 62q232 -9 354 -53t246 -160l-284 -316q-72 60 -128 86t-184 34
q-124 -16 -185 -51t-105 -95t-52 -180zM1324 1252q-68 76 -178 112t-330 49q-210 -5 -319 -57t-204 -132t-157 -200t-66 -285q2 -179 66 -285t162 -190t214 -142t304 -62q223 11 327 47.5t189 116.5l-205 214q-123 -90 -307 -86q-148 20 -220 58t-132 114t-60 214
q0 142 58 216t132.5 117t231.5 51q170 6 296 -94z" />
    <glyph glyph-name="quotesingle" unicode="'" horiz-adv-x="647" 
d="M170 813v631h307v-631h-307zM233 875h187v511h-187v-511z" />
    <glyph glyph-name="z" unicode="z" horiz-adv-x="1380" 
d="M60 1444h1320v-430l-699 -584h699v-430h-1320v430l699 584h-699v430zM120 1384v-310h695v-85l-695 -586v-343h1200v310h-699v85l699 578v351h-1200z" />
    <glyph glyph-name="x" unicode="x" horiz-adv-x="1616" 
d="M1732 1444l-530 -722l530 -722h-570l-298 446l-294 -446h-570l530 722l-530 722h570l294 -446l298 446h570zM114 1384l476 -622v-70l-470 -632h422l286 446h80l288 -446h422l-476 629v68l478 627h-420l-303 -446h-65l-296 446h-422z" />
    <glyph glyph-name="c" unicode="c" horiz-adv-x="1484" 
d="M1424 1384h-580q-164 -2 -300 -39t-241 -119t-167 -202t-66 -281q-2 -227 102 -379t280 -226t392 -78h580v310h-392q-136 -2 -216 7t-158 30t-131 93t-62 218q11 168 68 225t122 83t144.5 35.5t232.5 12.5h392v310zM1484 430v-430h-640q-235 0 -425 83.5t-299.5 250.5
t-109.5 409q0 170 65.5 303.5t181.5 222t266.5 132t320.5 43.5h640v-430h-452q-152 0 -225 -9t-130 -30t-101 -73t-51 -184q5 -128 51 -183t112 -73t136 -25t208 -7h452z" />
    <glyph glyph-name="v" unicode="v" horiz-adv-x="1722" 
d="M0 1444l508 -1444h767l515 1444h-579l-332 -1109l-328 1109h-551zM87 1384h417l334 -1109h87l329 1109h460l-475 -1324h-693z" />
    <glyph glyph-name="b" unicode="b" horiz-adv-x="1628" 
d="M60 0v1444h985q237 -2 360.5 -82t149.5 -268q9 -144 -61 -226t-231 -135v-4q79 -10 146 -42.5t112.5 -77t70.5 -100.5t25 -110q0 -171 -87.5 -259t-225 -115t-333.5 -25h-911zM522 1119h321q91 -1 150.5 -35t56.5 -100q0 -57 -60.5 -95t-146.5 -37h-321v267zM582 1059
v-147h261q79 6 107.5 20.5t39.5 51.5q-1 38 -32.5 54.5t-112.5 20.5h-263zM120 60h851q193 -4 323.5 22t198.5 104.5t64 212.5q0 53 -23 98t-59 80t-93 63.5t-189 56.5v65q171 48 241.5 121t60.5 211q-22 158 -129 222.5t-321 67.5h-925v-1324zM522 592h379q111 4 182 -43
t63 -125q2 -72 -69 -120t-176 -45h-379v333zM582 532v-212h319q105 2 142 28t43 76q1 54 -39.5 80t-145.5 28h-319z" />
    <glyph glyph-name="n" unicode="n" horiz-adv-x="1430" 
d="M60 0v1444h470l430 -540v540h470v-1444h-470l-430 540v-540h-470zM120 1384v-1324h350v540h95l430 -540h375v1324h-350v-538h-95l-420 538h-385z" />
    <glyph glyph-name="m" unicode="m" horiz-adv-x="1630" 
d="M60 0v1444h470l316 -600l314 600h470v-1444h-470v600l-302 -600h-26l-302 600v-600h-470zM120 1384v-1324h350v606h92l280 -582l285 576h93v-600h350v1324h-375l-331 -624h-36l-333 624h-375z" />
    <glyph glyph-name="comma" unicode="," horiz-adv-x="758" 
d="M188 397h435l-236 -630h-326zM226 354l-104 -544h226l204 544h-326z" />
    <glyph glyph-name="period" unicode="." horiz-adv-x="758" 
d="M216 60h326v277h-326v-277zM156 0v397h446v-397h-446z" />
    <glyph glyph-name="slash" unicode="/" horiz-adv-x="758" 
d="M518 1468h363l-641 -1493h-363zM-24 32h220l592 1376h-224z" />
    <glyph glyph-name="space" unicode=" " horiz-adv-x="950" 
 />
    <glyph glyph-name="asciitilde" unicode="~" horiz-adv-x="1615" 
d="M1674 1014v430h-1212l-483 -1444h546l91 260h429l91 -260h518l-333 1014h353zM1570 60h-394l-93 260h-515l-94 -260h-413l440 1324h1113v-310h-382zM946 612h-238l110 322zM819 1145l-205 -593h426z" />
    <glyph glyph-name="exclam" unicode="!" horiz-adv-x="872" 
d="M162 1444h549l-80 -909h-389zM213 385h446v-385h-446v385zM273 325v-265h326v265h-326zM228 1384l73 -789h271l71 789h-415z" />
    <glyph glyph-name="at" unicode="@" horiz-adv-x="5507" 
d="M5371 882l-1 -430h-344q-256 18 -76 -142q324 -284 318 -552t-318 -320h-771v430h307q284 -14 72 158q-348 320 -296 588t328 268h781zM2206 2516v-430h-458v-1014h-470v1014h-329h-238q-256 18 -76 -142q324 -284 318 -552t-318 -320h-1376v430h912q284 -14 72 158
q-348 320 -296 588t328 268h674h1h1256zM932 -560l478 1442h716l481 -1442h-546l-91 260h-429l-91 -260h-518zM2628 -562v1444h940q174 -16 286 -92t164 -204q40 -192 4 -296t-126 -174t-258 -110l108 -138h432v-430h-570l-458 477v-477h-522zM-469 882l256 -624l134 624
h470l-362 -1444h-470l-540 1444h512zM392 882l201 -624l207 624h510l-475 -1444h-470l-181 614l152 607zM1968 1072l475 1444h717l483 -1444h-546l-91 260h-429l-91 -260h-518zM3684 1072v1444h940q174 -16 286 -92t164 -204q40 -192 4 -296t-126 -174t-258 -110l108 -138
h432v-430h-570l-458 477v-477h-522zM2048 1132h394l93 260h515l94 -260h413l-440 1324h-628zM1008 -500h394l93 260h515l94 -260h413l-440 1324h-628zM1759 585l205 -593h-426zM2799 2217l205 -593h-426zM1632 52h238l-110 322zM2672 1684h238l-110 322zM950 2457l-670 -5
q-208 -4 -262 -222t286 -534q252 -248 -128 -258h-858v-310h1322q264 56 256 288t-352 524q-160 208 172 202l626 4v-1014h348v1014h458v310zM2688 -502h402v477h97l456 -477h475v310h-407l-133 163v84q206 42 281.5 105t107 154t20 174t-43 137.5t-126.5 118.5t-249 78
h-880v-1324zM3744 1132h402v477h97l456 -477h475v310h-407l-133 163v84q206 42 281.5 105t107 154t20 174t-43 137.5t-126.5 118.5t-247 78h-882v-1324zM3125 551h404q27 0 66 -31.5t46 -130.5q-4 -103 -41.5 -129t-69.5 -26h-405v317zM4181 2185h404q27 0 66 -31.5
t46 -130.5q-4 -103 -41.5 -129t-69.5 -26h-405v317zM3183 497v-204h309q24 0 53.5 16.5t31.5 84.5q-5 62 -35.5 82.5t-50.5 20.5h-308zM4241 2131v-204h309q24 0 53.5 16.5t31.5 84.5q-5 62 -35.5 82.5t-50.5 20.5h-308zM-888 824l504 -1324h360l156 632h108l172 -632h380
l420 1324h-348l-224 -616h-88l-212 616h-356l-136 -616h-104l-260 616h-372zM4119 -192v-310l829 6q264 56 256 288t-352 524q-160 208 172 202h282v310h-718q-208 -4 -262 -222t286 -534q252 -248 -128 -264h-365zM951 2456v-312v312z" />
    <glyph glyph-name="numbersign" unicode="#" 
d="M-60 1074h180v-60h-180v60zM-60 1444h180v-60h-180v60z" />
    <glyph glyph-name="dollar" unicode="$" 
d="M-60 60h180v-60h-180v60zM-60 430h180v-60h-180v60z" />
    <glyph glyph-name="percent" unicode="%" 
d="M60 1384h60v-310h-60v310z" />
    <glyph glyph-name="asciicircum" unicode="^" 
d="M60 370h60v-310h-60v310z" />
    <glyph glyph-name="ampersand" unicode="&#x26;" 
d="M-60 1384h60v-310h-60v310z" />
    <glyph glyph-name="asterisk" unicode="*" 
d="M-60 370h60v-310h-60v310z" />
    <glyph glyph-name="parenleft" unicode="(" horiz-adv-x="758" 
d="M616 -44q-68 132 -98 232t-52 196t-32 208t-14 232q8 108 18 218t32 212t54 202t88 232h-232q-252 -444 -249 -864q-3 -168 33 -316t84 -278t132 -274h236zM717 -105h-375q-85 142 -147.5 295.5t-96.5 311.5t-34 319q0 454 278 928h375q-58 -107 -101 -218t-72.5 -230.5
t-43.5 -239.5t-14 -240q0 -119 14.5 -240t43 -239t71.5 -228.5t102 -218.5z" />
    <glyph glyph-name="parenright" unicode=")" horiz-adv-x="758" 
d="M172 -44h236q84 144 132 274t84 278t33 316q3 420 -249 864h-232q56 -132 88 -232t54 -202t32 -212t18 -218q-4 -120 -14 -232t-32 -208t-52 -196t-98 -232zM71 -105q59 108 102 218.5t71.5 228.5t43 239t14.5 240q0 120 -14 240t-43.5 239.5t-72.5 230.5t-101 218h375
q278 -474 278 -928q0 -161 -34 -319t-96.5 -311.5t-147.5 -295.5h-375z" />
    <glyph glyph-name="underscore" unicode="_" horiz-adv-x="1440" 
d="M1001 430v292h439v-722h-621q-228 0 -412.5 83.5t-290.5 250.5t-106 409q0 170 63.5 303.5t176 222t227.5 142t339 65.5q232 -12 354 -56t246 -160l-284 -316q-72 60 -128 86t-184 34q-124 -16 -182 -54t-102 -98t-56 -184q12 -124 56 -174t110 -82t142 -40t213 -2z
M1324 1252q-68 76 -178 112t-330 49q-210 -5 -319 -57t-204 -132t-157 -200t-66 -285q22 -203 72 -301t118 -168t218 -138t338 -72h564v602h-318v-292q-58 -22 -242 -18q-148 20 -220 58t-132 114t-60 214q0 142 58 216t132.5 117t231.5 51q170 6 296 -94z" />
    <glyph glyph-name="plus" unicode="+" horiz-adv-x="1456" 
d="M0 1444h1516v-60h-1516v60zM1516 1014h-1516v60h1516v-60z" />
    <glyph glyph-name="Q" unicode="Q" horiz-adv-x="1639" 
d="M1556 736q18 208 -58.5 355t-250 226t-412.5 79q-180 0 -322 -45t-240 -131t-148.5 -212.5t-54.5 -292.5q4 -220 92.5 -372t260.5 -230t412 -78l744 25h60v-60l-859 -25q-185 5 -326.5 53t-241.5 143.5t-151 233.5t-51 316q0 182 53 312.5t155 226.5t246 144t368 54
q228 -6 402 -70t284 -212t98 -440q-24 -132 -96 -231t77 -75h42v-60h-60q-177 10 -149 83t62 119t64 164zM499 703q0 363 330 363q210 0 275 -109.5t72 -253.5q-7 -105 -29.5 -212.5t-317.5 -77.5v-76q-197 0 -263.5 109t-66.5 257zM551 702q0 -123 55 -216t218 -93v64
q244 -24 263 66.5t24 178.5q-5 124 -59 216t-228 92q-273 0 -273 -308z" />
    <glyph glyph-name="W" unicode="W" horiz-adv-x="1932" 
d="M60 1384v60h358l198 -624l172 624h432l201 -624l134 624h377v-60h-329l-148 -624h-67l-209 624h-340l-180 -624h-86l-198 624h-315zM1872 1074h60v-60h-12l-257 -1014h-470l-183 612l-152 -612h-470l-316 1014h-12v60h60l318 -1014h374l158 611h82l187 -611h380z" />
    <glyph glyph-name="E" unicode="E" horiz-adv-x="1360" 
d="M60 1384v60h1240v-60h-1240zM120 370h-60v704h60v-704zM1300 1074v-60h-770v-166h496v-252h-496v-166h830v-60h-890v284h496v134h-496v286h830zM1360 60v-60h-1300v60h1300z" />
    <glyph glyph-name="R" unicode="R" horiz-adv-x="1550" 
d="M60 1384v60h940q174 -16 279 -86t143 -135t54 -159t-21 -205t-127 -181t-258 -110l108 -138h372v-60h-407l-133 163v84q206 42 281.5 105t107 154t20 174t-43 137.5t-126.5 118.5t-249 78h-940zM557 1109h404q27 0 66 -31.5t46 -130.5q-4 -103 -41.5 -129t-69.5 -26h-405
v317zM619 1051v-204h309q24 0 53.5 16.5t31.5 84.5q-5 62 -35.5 82.5t-50.5 20.5h-308zM60 60h462v477h97l456 -477h475v-60h-510l-458 477v-477h-522v60zM120 1074v-704h-60v704h60z" />
    <glyph glyph-name="T" unicode="T" horiz-adv-x="1266" 
d="M458 60h350v1014h458v-60h-398v-1014h-470v1014h-398v60h458v-1014zM0 1444l1266 -1v-59h-1266v60z" />
    <glyph glyph-name="Y" unicode="Y" horiz-adv-x="1264" 
d="M60 1384v60h306l294 -446l298 446h306v-60h-266l-303 -446h-65l-296 446h-274zM1264 1074v-60h-26l-340 -484v-530h-472v530l-340 484h-26v60h60l368 -526v-488h352v488l364 526h60z" />
    <glyph glyph-name="U" unicode="U" horiz-adv-x="1494" 
d="M530 1444v-854q-6 -146 56 -203t194 -61q106 2 177 62t67 202v854h470v-60h-410v-794q6 -152 -66 -231t-238 -93q-174 6 -244 84t-66 240v794h-410v60h470zM1434 1074h60v-477q-3 -180 -59.5 -287.5t-143 -179.5t-217 -112t-290.5 -44q-133 3 -270.5 36.5t-240 105.5
t-158 185t-55.5 295v478h60v-478q10 -178 55 -267t136 -157t219 -101t254 -37q150 6 274 45t199 104t124 154t53 260v477z" />
    <glyph glyph-name="I" unicode="I" horiz-adv-x="1404" 
d="M60 1384v60h470v-470l330 470h470l-538 -722l460 -718q62 -92 152 -86v-60q-124 -2 -176 94l-496 744v51l483 637h-324l-320 -470h-101v470h-410zM120 1074v-704h-60v704h60zM60 0v60h410v430h83l527 -770q110 -176 324 -172v-60q-250 -2 -352 180l-522 762v-430h-470z
" />
    <glyph glyph-name="O" unicode="O" horiz-adv-x="1550" 
d="M60 1384v60h940q174 -16 279 -86t143 -135t54 -159t-21 -205t-127 -181t-258 -110l372 -608q36 -52 108 -42v-60q-102 -4 -138 52l-402 623v84q206 42 281.5 105t107 154t20 174t-43 137.5t-126.5 118.5t-249 78h-940zM557 1109h404q27 0 66 -31.5t46 -130.5
q-4 -103 -41.5 -129t-69.5 -26h-405v317zM619 1051v-204h309q24 0 53.5 16.5t31.5 84.5q-5 62 -35.5 82.5t-50.5 20.5h-308zM60 60h462v477h97l585 -873q88 -128 346 -116v-60q-286 -8 -374 112l-594 877v-477h-522v60zM120 1074v-704h-60v704h60z" />
    <glyph glyph-name="P" unicode="P" horiz-adv-x="1501" 
d="M60 0v60h462v477h512q170 35 260 110t120 175t13 189t-48 155t-122 132t-257 86h-940v60h940q174 -22 281 -90t151 -166t52 -167t4 -136t-29 -136t-135 -157t-290 -115h-452v-477h-522zM557 1109h404q27 0 66 -31.5t46 -130.5q-4 -103 -41.5 -129t-69.5 -26h-405v317z
M619 1051v-204h309q24 0 53.5 16.5t31.5 84.5q-5 62 -35.5 82.5t-50.5 20.5h-308zM120 1074v-704h-60v704h60z" />
    <glyph glyph-name="braceleft" unicode="{" 
d="M60 430h-300v-430h300v60h-240v310h240v60z" />
    <glyph glyph-name="braceright" unicode="}" 
d="M0 430h300v-430h-300v60h240v310h-240v60z" />
    <glyph glyph-name="bar" unicode="|" 
d="M-1636 -82h-300v-430h300v60h-240v310h240v60z" />
    <glyph glyph-name="A" unicode="A" horiz-adv-x="1492" 
d="M60 60h370l92 260h508l92 -260h370v-60h-410l-92 260h-428l-92 -260h-410v60zM1480 430h12v-60h-60l-326 1014h-630l-354 -1014h-62v60h12l354 1014h730zM787 1145l205 -593h-426zM660 612h238l-110 322z" />
    <glyph glyph-name="S" unicode="S" horiz-adv-x="1135" 
d="M1135 1444v-60h-727q-208 -4 -262 -222t286 -534q252 -248 -128 -258h-244v60h244q283 -8 72 158q-348 320 -296 588t328 268h727zM1135 1014h-291q-257 8 -76 -142q324 -284 318 -552t-318 -320h-708v60h708q264 56 256 288t-352 524q-160 208 172 202h291v-60z" />
    <glyph glyph-name="D" unicode="D" horiz-adv-x="1662" 
d="M514 1114h302q105 0 170 -41.5t106.5 -115.5t45.5 -229q-12 -169 -51.5 -234.5t-102.5 -107.5t-166 -42h-304v770zM60 60h828q240 6 343 47t171 104t126 186t64 325q-8 194 -29 251t-54 122t-103 133t-195 114t-299 42h-852v60h852q173 0 306.5 -43t223 -124t150 -214
t60.5 -341q-11 -202 -66 -340t-146 -218t-222.5 -124t-329.5 -40h-828v60zM574 1054l1 -650h243q103 3 151 41t72.5 82t36.5 201q-9 132 -36 188.5t-76.5 96t-149.5 41.5h-242zM60 370v704h60v-704h-60z" />
    <glyph glyph-name="F" unicode="F" horiz-adv-x="1300" 
d="M60 1384v60h1240v-60h-1240zM120 370h-60v704h60v-704zM470 60v594h496v134h-496v286h830v-60h-770v-166h496v-252h-496v-596h-470v60h410z" />
    <glyph glyph-name="G" unicode="G" horiz-adv-x="1484" 
d="M1484 1074v-60h-452q-152 0 -225 -9t-130 -30t-101 -73t-51 -184q5 -128 51 -183t112 -73t136 -25t208 -7v292h452v-722h-640q-235 0 -425 83.5t-299.5 250.5t-109.5 409q0 170 65.5 303.5t181.5 222t266.5 132t320.5 43.5h640v-60h-640q-164 -2 -300 -39t-241 -119
t-167 -202t-66 -281q-2 -227 102 -379t280 -226t392 -78h580v602h-332v-292h-60q-136 -2 -216 7t-158 30t-131 93t-62 218q11 168 68 225t122 83t144.5 35.5t232.5 12.5h452z" />
    <glyph glyph-name="H" unicode="H" horiz-adv-x="1378" 
d="M908 946v498h470v-60h-410v-498h-498v498h-410v60h470v-498h378zM60 370v352v352h60v-352v-352h-60zM1378 1074v-704h-60v704h60zM1378 60v-60h-470v520h-378v-520h-470v60h410v520h498v-520h410z" />
    <glyph glyph-name="J" unicode="J" horiz-adv-x="877" 
d="M386 1384v-1260q-7 -114 -36.5 -156t-80.5 -69t-104 -35t-165 -6v60q88 -2 141 6t90 26t60 51t35 123v1320h551v-60h-491zM0 -512v60q150 0 242 8t203 40t174 85t86 109t31 202v1082h141v-60h-81v-1022q-6 -166 -36 -234t-107 -128t-193 -91t-210 -41t-250 -10z" />
    <glyph glyph-name="K" unicode="K" horiz-adv-x="1404" 
d="M60 1384v60h470v-470l330 470h470l-538 -722l240 -292h372v-60h-401l-271 326v51l483 637h-324l-320 -470h-101v470h-410zM120 1074v-704h-60v704h60zM60 0v60h410v430h83l371 -430h480v-60h-510l-364 430v-430h-470z" />
    <glyph glyph-name="L" unicode="L" horiz-adv-x="1312" 
d="M60 1384v60h470v-1014h782v-60h-842v1014h-410zM60 1074h60v-704h-60v704zM60 60h1252v-60h-1252v60z" />
    <glyph glyph-name="colon" unicode=":" horiz-adv-x="758" 
d="M156 0v397h446v-397h-446zM156 680v397h446v-397h-446zM216 333v-277h331v277h-331zM216 1017v-277h331v277h-331z" />
    <glyph glyph-name="quotedbl" unicode="&#x22;" horiz-adv-x="1139" 
d="M635 813v631h307v-631h-307zM699 875h187v511h-187v-511zM197 813v631h307v-631h-307zM257 873h187v511h-187v-511z" />
    <glyph glyph-name="Z" unicode="Z" horiz-adv-x="1380" 
d="M60 1384v60h1320v-430l-699 -584h699v-60h-759v85l699 578v351h-1260zM1380 0h-1320v430l699 584h-699v60h755v-85l-695 -586v-343h1260v-60z" />
    <glyph glyph-name="X" unicode="X" horiz-adv-x="1248" 
d="M60 1384v60h296l294 -446l298 446h300v-60h-262l-303 -446h-65l-296 446h-262zM1248 0h-300l-298 446l-294 -446h-296v60h268l286 446h80l288 -446h266v-60zM60 370v60h12l244 292l-244 292h-12v60h60l256 -312v-70l-256 -322h-60zM1248 370v60h-12l-244 292l244 292h12
v60h-60l-256 -312v-70l256 -322h60z" />
    <glyph glyph-name="C" unicode="C" horiz-adv-x="1484" 
d="M1484 1384h-640q-164 -2 -300 -39t-241 -119t-167 -202t-66 -281q-2 -227 102 -379t280 -226t392 -78h640v-60h-640q-235 0 -425 83.5t-299.5 250.5t-109.5 409q0 170 65.5 303.5t181.5 222t266.5 132t320.5 43.5h640v-60zM1484 1074v-60h-452q-152 0 -225 -9t-130 -30
t-101 -73t-51 -184q5 -128 51 -183t112 -73t136 -25t208 -7h452v-60h-452q-136 -2 -216 7t-158 30t-131 93t-62 218q11 168 68 225t122 83t144.5 35.5t232.5 12.5h452z" />
    <glyph glyph-name="V" unicode="V" horiz-adv-x="1586" 
d="M60 1384h372l334 -1109h87l329 1109h404v60h-447l-332 -1109l-328 1109h-419v-60zM1574 1014h12v60h-54l-365 -1014h-693l-352 1014h-62v-60h12l364 -1014h767z" />
    <glyph glyph-name="B" unicode="B" horiz-adv-x="1628" 
d="M522 1119h321q91 -1 150.5 -35t56.5 -100q0 -57 -60.5 -95t-146.5 -37h-321v267zM582 1059v-147h261q79 6 107.5 20.5t39.5 51.5q-1 38 -32.5 54.5t-112.5 20.5h-263zM60 1384v60h985q237 -2 360.5 -82t149.5 -268q9 -144 -61 -226t-231 -135v-4q79 -10 146 -42.5
t112.5 -77t70.5 -100.5t25 -110q0 -171 -87.5 -259t-225 -115t-333.5 -25h-911v60h911q193 -4 323.5 22t198.5 104.5t64 212.5q0 53 -23 98t-59 80t-93 63.5t-189 56.5v65q171 48 241.5 121t60.5 211q-22 158 -129 222.5t-321 67.5h-985zM522 592h379q111 4 182 -43t63 -125
q2 -72 -69 -120t-176 -45h-379v333zM582 532v-212h319q105 2 142 28t43 76q1 54 -39.5 80t-145.5 28h-319zM120 1074v-704h-60v704h60z" />
    <glyph glyph-name="N" unicode="N" horiz-adv-x="1430" 
d="M60 1384v60h470l430 -540v540h470v-60h-410v-538h-95l-420 538h-445zM1430 60v-60h-470l-430 540v-540h-470v60h410v540h95l430 -540h435zM1430 1074v-704h-60v704h60zM120 1074v-704h-60v704h60z" />
    <glyph glyph-name="M" unicode="M" horiz-adv-x="1630" 
d="M60 1444h470l316 -600l314 600h470v-60h-435l-331 -624h-36l-333 624h-435v60zM1630 60v-60h-470v600l-302 -600h-26l-302 600v-600h-470v60h410v606h92l280 -582l285 576h93v-600h410zM1630 1074v-704h-60v704h60zM120 1074v-704h-60v704h60z" />
    <glyph glyph-name="less" unicode="&#x3c;" 
d="M-1636 -82h1636v-60h-1636v60zM-1636 -452h1636v-60h-1636v60z" />
    <glyph glyph-name="greater" unicode="&#x3e;" 
d="M1636 -82h-1636v-60h1636v60zM1636 -452h-1636v-60h1636v60z" />
    <glyph glyph-name="question" unicode="?" horiz-adv-x="1176" 
d="M660 594q-2 48 49 107t145 136t133 131t45 152q-10 104 -83 171t-187 93t-232 24q-114 2 -212 -18t-174 -56v-204q24 10 84 23t144 15q120 6 191 -26t73 -118q-2 -84 -56 -127t-98 -76t-79 -90t-47 -137h304zM283 385h446v-385h-446v385zM342 333v-277h331v277h-331z
M711 535h-410q8 143 47 218.5t89.5 113t94 71.5t43.5 86t-52 68t-150 16q-69 0 -150.5 -20.5t-138.5 -47.5v353q118 37 221.5 56t224.5 19q122 0 250 -28.5t220 -106.5t92 -213q0 -104 -48.5 -172.5t-147 -148.5t-142 -132t-43.5 -132z" />
    <glyph glyph-name="quoteleft" unicode="&#x2018;" horiz-adv-x="647" 
d="M474 816zM417 971v413h-187v-222zM477 814l-307 314v316h307v-630z" />
    <glyph glyph-name="quoteright" unicode="&#x2019;" horiz-adv-x="647" 
d="M172 816zM229 971v413h187v-222zM169 814l307 314v316h-307v-630z" />
    <glyph glyph-name="quotedblleft" unicode="&#x201c;" horiz-adv-x="1139" 
d="M940 816zM502 816zM504 814l-307 314v316h307v-630zM942 814l-307 314v316h307v-630zM882 971v413h-187v-222zM444 971v413h-187v-222z" />
    <glyph glyph-name="quotedblright" unicode="&#x201d;" horiz-adv-x="1139" 
d="M198 816zM636 816zM634 814l307 314v316h-307v-630zM196 814l307 314v316h-307v-630zM256 971v413h187v-222zM694 971v413h187v-222z" />
    <glyph glyph-name="quotedblbase" unicode="&#x201e;" horiz-adv-x="1649" 
d="M1183 478h-194v254h660v-732h-348v118q-34 -48 -92 -79t-151 -47.5t-192 -16.5q-175 -3 -329 47t-272 146t-186.5 210.5t-68.5 364.5q0 176 67.5 313.5t186.5 229t273.5 137t328.5 45.5q153 -4 315 -56t252 -142t132 -192t56 -154h-436q-74 124 -142 152t-148 28
t-148 -26t-108 -70t-72 -106t-36 -186q0 -132 50 -208t112 -112t163 -46t180 15t147 113zM1249 478q-43 -90 -110 -130t-128 -53t-139 -9t-176 40t-161 127t-64 263q5 149 39 216t82.5 119t141 83.5t163 30t123.5 -18t83.5 -37t54.5 -48t62 -77.5h314q-13 43 -42 102.5
t-105 138.5t-224 129.5t-297 53.5q-169 2 -313 -43.5t-246.5 -122.5t-167.5 -201t-69 -298q-8 -239 115 -407t333.5 -239.5t347.5 -61.5q179 2 254.5 29.5t111 55t69.5 58.5h60v-118h228v612h-540v-134h200v-60z" />
    <glyph glyph-name="dagger" unicode="&#x2020;" horiz-adv-x="1650" 
d="M1144 528h497q-6 -48 -124 -216t-278 -250t-373 -87q-241 0 -436 86t-307.5 259t-112.5 423q0 176 67.5 313.5t186.5 229t273.5 137t328.5 45.5q157 0 293 -44t244 -140t170 -226t68 -178h-497q-16 100 -61 145t-78.5 60t-105.5 15t-146 -24t-114 -68t-64 -98t-36 -194
q12 -140 64 -216t128 -112t150 -40t111.5 8t87.5 49t64 123zM1196 469q-14 -49 -68.5 -95t-113.5 -65t-135 -15t-162.5 42t-158 124.5t-78.5 255.5q8 153 36 218t76.5 117t138.5 78.5t158.5 27t122.5 -17t86.5 -43.5t62 -64.5t35.5 -91.5h354q-15 75 -61 145t-142 157
t-214 125t-267 41q-169 2 -313 -43.5t-246.5 -122.5t-167.5 -201t-69 -298q-8 -239 108.5 -409t333.5 -239.5t354 -59.5q154 1 314 75t256 191.5t114 167.5h-354z" />
    <glyph glyph-name="Agrave" unicode="&#xc0;" horiz-adv-x="1492" 
d="M60 60h370l92 260h508l92 -260h370v-60h-410l-92 260h-428l-92 -260h-410v60zM1480 430h12v-60h-60l-326 1014h-630l-354 -1014h-62v60h12l354 1014h730zM787 1145l205 -593h-426zM660 612h238l-110 322zM267 1800h462l176 -318zM480 1742l320 -150l-98 150h-222z" />
    <glyph glyph-name="agrave" unicode="&#xe0;" horiz-adv-x="1615" 
d="M0 0l475 1444h717l483 -1444h-546l-91 260h-429l-91 -260h-518zM835 1145l205 -593h-426zM84 60h394l93 260h515l94 -260h413l-440 1324h-628zM708 612h238l-110 322zM307 1796h462l176 -318zM504 1742l320 -150l-98 150h-222z" />
    <glyph glyph-name="Aacute" unicode="&#xc1;" horiz-adv-x="1492" 
d="M60 60h370l92 260h508l92 -260h370v-60h-410l-92 260h-428l-92 -260h-410v60zM1480 430h12v-60h-60l-326 1014h-630l-354 -1014h-62v60h12l354 1014h730zM787 1145l205 -593h-426zM660 612h238l-110 322zM1323 1796h-462l-176 -318zM1118 1742l-310 -150l94 150h216z" />
    <glyph glyph-name="aacute" unicode="&#xe1;" horiz-adv-x="1615" 
d="M0 0l475 1444h717l483 -1444h-546l-91 260h-429l-91 -260h-518zM835 1145l205 -593h-426zM84 60h394l93 260h515l94 -260h413l-440 1324h-628zM708 612h238l-110 322zM1383 1796h-462l-176 -318zM1174 1742l-310 -150l94 150h216z" />
    <glyph glyph-name="Acircumflex" unicode="&#xc2;" horiz-adv-x="1492" 
d="M60 60h370l92 260h508l92 -260h370v-60h-410l-92 260h-428l-92 -260h-410v60zM1480 430h12v-60h-60l-326 1014h-630l-354 -1014h-62v60h12l354 1014h730zM787 1145l205 -593h-426zM660 612h238l-110 322zM1066 1534l-279 283l-278 -283v-59l280 171l277 -174v62z
M594 1576l190 180l196 -172l-196 120z" />
    <glyph glyph-name="acircumflex" unicode="&#xe2;" horiz-adv-x="1615" 
d="M0 0l475 1444h717l483 -1444h-546l-91 260h-429l-91 -260h-518zM835 1145l205 -593h-426zM84 60h394l93 260h515l94 -260h413l-440 1324h-628zM708 612h238l-110 322zM1114 1534l-279 283l-278 -283v-59l280 171l277 -174v62zM642 1568l190 180l196 -172l-196 120z" />
    <glyph glyph-name="Atilde" unicode="&#xc3;" horiz-adv-x="1492" 
d="M60 60h370l92 260h508l92 -260h370v-60h-410l-92 260h-428l-92 -260h-410v60zM1480 430h12v-60h-60l-326 1014h-630l-354 -1014h-62v60h12l354 1014h730zM787 1145l205 -593h-426zM660 612h238l-110 322zM560 1724q102 58 182 -27t131 -112t171 15q-114 -116 -210 -14
t-153 118t-121 20zM1088 1676q-148 -140 -323 51t-322 -79l60 -47q85 167 253 -15t408 50z" />
    <glyph glyph-name="atilde" unicode="&#xe3;" horiz-adv-x="1615" 
d="M0 0l475 1444h717l483 -1444h-546l-91 260h-429l-91 -260h-518zM835 1145l205 -593h-426zM84 60h394l93 260h515l94 -260h413l-440 1324h-628zM708 612h238l-110 322zM604 1724q102 58 182 -27t131 -112t171 15q-114 -116 -210 -14t-153 118t-121 20zM1132 1676
q-148 -140 -323 51t-322 -79l60 -47q85 167 253 -15t408 50z" />
    <glyph glyph-name="Adieresis" unicode="&#xc4;" horiz-adv-x="1492" 
d="M60 60h370l92 260h508l92 -260h370v-60h-410l-92 260h-428l-92 -260h-410v60zM1480 430h12v-60h-60l-326 1014h-630l-354 -1014h-62v60h12l354 1014h730zM787 1145l205 -593h-426zM660 612h238l-110 322zM631 1764q51 0 83.5 -33.5t32.5 -83.5q-5 -61 -38.5 -92
t-83.5 -31q-48 0 -81 33t-33 83q0 56 33 90t87 34zM951 1768q51 0 83.5 -33.5t32.5 -83.5q-5 -61 -38.5 -92t-83.5 -31q-48 0 -81 33t-33 83q0 56 33 90t87 34zM631 1706q-31 0 -49.5 -18.5t-18.5 -50.5q0 -28 18.5 -46.5t45.5 -18.5q29 0 48 17.5t22 51.5q0 28 -18.5 46.5
t-47.5 18.5zM951 1710q-31 0 -49.5 -18.5t-18.5 -50.5q0 -28 18.5 -46.5t45.5 -18.5q29 0 48 17.5t22 51.5q0 28 -18.5 46.5t-47.5 18.5z" />
    <glyph glyph-name="adieresis" unicode="&#xe4;" horiz-adv-x="1615" 
d="M0 0l475 1444h717l483 -1444h-546l-91 260h-429l-91 -260h-518zM835 1145l205 -593h-426zM84 60h394l93 260h515l94 -260h413l-440 1324h-628zM708 612h238l-110 322zM671 1764q51 0 83.5 -33.5t32.5 -83.5q-5 -61 -38.5 -92t-83.5 -31q-48 0 -81 33t-33 83q0 56 33 90
t87 34zM1001 1764q51 0 83.5 -33.5t32.5 -83.5q-5 -61 -38.5 -92t-83.5 -31q-48 0 -81 33t-33 83q0 56 33 90t87 34zM671 1706q-31 0 -49.5 -18.5t-18.5 -50.5q0 -28 18.5 -46.5t45.5 -18.5q29 0 48 17.5t22 51.5q0 28 -18.5 46.5t-47.5 18.5zM1003 1706q-31 0 -49.5 -18.5
t-18.5 -50.5q0 -28 18.5 -46.5t45.5 -18.5q29 0 48 17.5t22 51.5q0 28 -18.5 46.5t-47.5 18.5z" />
    <glyph glyph-name="Aring" unicode="&#xc5;" horiz-adv-x="1492" 
d="M60 60h370l92 260h508l92 -260h370v-60h-410l-92 260h-428l-92 -260h-410v60zM1480 430h12v-60h-60l-326 1014h-630l-354 -1014h-62v60h12l354 1014h730zM787 1145l205 -593h-426zM660 612h238l-110 322zM786 1848q83 0 137.5 -55t54.5 -136q0 -82 -59.5 -140.5
t-141.5 -58.5q-79 0 -133.5 53t-54.5 135q0 91 55 146.5t142 55.5zM781 1768q-54 0 -87 -34t-33 -90q0 -50 33 -83t81 -33q50 0 83.5 31t38.5 92q0 50 -32.5 83.5t-83.5 33.5z" />
    <glyph glyph-name="aring" unicode="&#xe5;" horiz-adv-x="1615" 
d="M0 0l475 1444h717l483 -1444h-546l-91 260h-429l-91 -260h-518zM835 1145l205 -593h-426zM84 60h394l93 260h515l94 -260h413l-440 1324h-628zM708 612h238l-110 322zM834 1848q83 0 137.5 -55t54.5 -136q0 -82 -59.5 -140.5t-141.5 -58.5q-79 0 -133.5 53t-54.5 135
q0 91 55 146.5t142 55.5zM837 1768q-54 0 -87 -34t-33 -90q0 -50 33 -83t81 -33q50 0 83.5 31t38.5 92q0 50 -32.5 83.5t-83.5 33.5z" />
    <glyph glyph-name="AE" unicode="&#xc6;" horiz-adv-x="2094" 
d="M848 1200l-268 -648h268v648zM660 612l136 314v-314h-136zM1032 1384h-556l-356 -1014h-60v60h12l354 1014h1606v-430h-768v-166h496v-252h-496v-166h830v-60h-890v284h496v134h-496v286h768v310h-940zM60 60h370l87 260h331v-260h1246v-60h-1306v260h-227l-91 -260h-410
v60z" />
    <glyph glyph-name="ae" unicode="&#xe6;" horiz-adv-x="2118" 
d="M872 1200l-268 -648h268v648zM812 0v260h-227l-91 -260h-518l475 1444h1605v-430h-768v-166h496v-252h-496v-166h830v-430h-1306zM684 612l136 314v-314h-136zM1056 1384h-561l-441 -1324h394l93 260h331v-260h1186v310h-830v284h496v134h-496v286h768v310h-940z" />
    <glyph glyph-name="Ccedilla" unicode="&#xc7;" horiz-adv-x="1484" 
d="M1484 1384h-640q-164 -2 -300 -39t-241 -119t-167 -202t-66 -281q-2 -227 102 -379t280 -226t360 -76v-228q44 -4 109 -44t71 -118q2 -58 -23 -90t-133 -54q112 12 166 44t77 60t27 72q-8 66 -65 98t-147 50v208h590v-60h-526v-112q107 -20 159 -68t52 -116
q0 -92 -101.5 -160.5t-261.5 -68.5q-63 0 -159 8l15 87q42 -12 100 -14q100 0 135.5 31t35.5 85q0 38 -39 66t-97 28q-17 0 -44 -3l-1 241q-143 -4 -333 79.5t-299.5 250.5t-109.5 409q0 170 65.5 303.5t181.5 222t266.5 132t320.5 43.5h396h244v-60zM1484 1074v-60h-452
q-152 0 -225 -9t-130 -30t-101 -73t-51 -184q5 -128 51 -183t112 -73t136 -25t208 -7h452v-60h-452q-136 -2 -216 7t-158 30t-131 93t-62 218q11 168 68 225t122 83t144.5 35.5t232.5 12.5h452z" />
    <glyph glyph-name="ccedilla" unicode="&#xe7;" horiz-adv-x="1484" 
d="M752 4q-143 -4 -333 79.5t-299.5 250.5t-109.5 409q0 170 65.5 303.5t181.5 222t266.5 132t320.5 43.5h396h244v-430h-452q-152 0 -225 -9t-130 -30t-101 -73t-51 -184q5 -128 51 -183t112 -73t136 -25t208 -7h452v-430h-526v-112q107 -20 159 -68t52 -116
q0 -92 -101.5 -160.5t-261.5 -68.5q-63 0 -159 8l15 87q42 -12 100 -14q100 0 135.5 31t35.5 85q0 38 -39 66t-97 28q-17 0 -44 -3zM1424 1384h-580q-164 -2 -300 -39t-241 -119t-167 -202t-66 -281q-2 -227 102 -379t280 -226t360 -76v-228q44 -4 109 -44t71 -118
q2 -58 -23 -90t-133 -54q112 12 166 44t77 60t27 72q-8 66 -65 98t-147 50v208h240h290v310h-392q-136 -2 -216 7t-158 30t-131 93t-62 218q11 168 68 225t122 83t144.5 35.5t232.5 12.5h392v310z" />
    <glyph glyph-name="Egrave" unicode="&#xc8;" horiz-adv-x="1360" 
d="M60 1384v60h1240v-60h-1240zM120 370h-60v704h60v-704zM1300 1074v-60h-770v-166h496v-252h-496v-166h830v-60h-890v284h496v134h-496v286h830zM1360 60v-60h-1300v60h1300zM203 1796h462l176 -318zM408 1742l320 -150l-98 150h-222z" />
    <glyph glyph-name="egrave" unicode="&#xe8;" horiz-adv-x="1360" 
d="M60 0v1444h1238v-430h-768v-166h496v-252h-496v-166h830v-430h-1300zM203 1796h462l176 -318zM120 1384v-1324h1180v310h-830v284h496v134h-496v286h768v310h-1118zM408 1742l320 -150l-98 150h-222z" />
    <glyph glyph-name="Eacute" unicode="&#xc9;" horiz-adv-x="1360" 
d="M60 1384v60h1240v-60h-1240zM120 370h-60v704h60v-704zM1300 1074v-60h-770v-166h496v-252h-496v-166h830v-60h-890v284h496v134h-496v286h830zM1360 60v-60h-1300v60h1300zM1311 1796h-462l-176 -318zM1102 1742l-310 -150l94 150h216z" />
    <glyph glyph-name="eacute" unicode="&#xe9;" horiz-adv-x="1360" 
d="M60 0v1444h1238v-430h-768v-166h496v-252h-496v-166h830v-430h-1300zM1311 1796h-462l-176 -318zM120 1384v-1324h1180v310h-830v284h496v134h-496v286h768v310h-1118zM1102 1742l-310 -150l94 150h216z" />
    <glyph glyph-name="Ecircumflex" unicode="&#xca;" horiz-adv-x="1360" 
d="M60 1384v60h1240v-60h-1240zM120 370h-60v704h60v-704zM1300 1074v-60h-770v-166h496v-252h-496v-166h830v-60h-890v284h496v134h-496v286h830zM1360 60v-60h-1300v60h1300zM1030 1534l-279 283l-278 -283v-59l280 171l277 -174v62zM562 1568l190 180l196 -172l-196 120z
" />
    <glyph glyph-name="ecircumflex" unicode="&#xea;" horiz-adv-x="1360" 
d="M60 0v1444h1238v-430h-768v-166h496v-252h-496v-166h830v-430h-1300zM1030 1534l-279 283l-278 -283v-59l280 171l277 -174v62zM120 1384v-1324h1180v310h-830v284h496v134h-496v286h768v310h-1118zM562 1568l190 180l196 -172l-196 120z" />
    <glyph glyph-name="Edieresis" unicode="&#xcb;" horiz-adv-x="1360" 
d="M60 1384v60h1240v-60h-1240zM120 370h-60v704h60v-704zM1300 1074v-60h-770v-166h496v-252h-496v-166h830v-60h-890v284h496v134h-496v286h830zM1360 60v-60h-1300v60h1300zM563 1764q51 0 83.5 -33.5t32.5 -83.5q-5 -61 -38.5 -92t-83.5 -31q-48 0 -81 33t-33 83
q0 56 33 90t87 34zM941 1764q51 0 83.5 -33.5t32.5 -83.5q-5 -61 -38.5 -92t-83.5 -31q-48 0 -81 33t-33 83q0 56 33 90t87 34zM563 1706q-31 0 -49.5 -18.5t-18.5 -50.5q0 -28 18.5 -46.5t45.5 -18.5q29 0 48 17.5t22 51.5q0 28 -18.5 46.5t-47.5 18.5zM941 1708
q-31 0 -49.5 -18.5t-18.5 -50.5q0 -28 18.5 -46.5t45.5 -18.5q29 0 48 17.5t22 51.5q0 28 -18.5 46.5t-47.5 18.5z" />
    <glyph glyph-name="edieresis" unicode="&#xeb;" horiz-adv-x="1360" 
d="M60 0v1444h1238v-430h-768v-166h496v-252h-496v-166h830v-430h-1300zM563 1764q51 0 83.5 -33.5t32.5 -83.5q-5 -61 -38.5 -92t-83.5 -31q-48 0 -81 33t-33 83q0 56 33 90t87 34zM941 1764q51 0 83.5 -33.5t32.5 -83.5q-5 -61 -38.5 -92t-83.5 -31q-48 0 -81 33t-33 83
q0 56 33 90t87 34zM120 1384v-1324h1180v310h-830v284h496v134h-496v286h768v310h-1118zM563 1710q-31 0 -49.5 -18.5t-18.5 -50.5q0 -28 18.5 -46.5t45.5 -18.5q29 0 48 17.5t22 51.5q0 28 -18.5 46.5t-47.5 18.5zM941 1712q-31 0 -49.5 -18.5t-18.5 -50.5
q0 -28 18.5 -46.5t45.5 -18.5q29 0 48 17.5t22 51.5q0 28 -18.5 46.5t-47.5 18.5z" />
    <glyph glyph-name="Igrave" unicode="&#xcc;" horiz-adv-x="550" 
d="M40 1444h470v-1444h-470v1444zM26 1796h371l113 -316zM100 1384v-1324h350v1324h-350zM168 1746l260 -150l-80 150h-180z" />
    <glyph glyph-name="igrave" unicode="&#xec;" horiz-adv-x="550" 
d="M40 1444h470v-1444h-470v1444zM26 1796h371l113 -316zM100 1384v-1324h350v1324h-350zM168 1746l260 -150l-80 150h-180z" />
    <glyph glyph-name="Iacute" unicode="&#xcd;" horiz-adv-x="550" 
d="M508 1444v-1444h-468v1444h468zM510 1796h-371l-113 -316zM100 1384v-1324h350v1324h-350zM356 1746l-243 -150l75 150h168z" />
    <glyph glyph-name="iacute" unicode="&#xed;" horiz-adv-x="550" 
d="M508 1444v-1444h-468v1444h468zM510 1796h-371l-113 -316zM100 1384v-1324h350v1324h-350zM356 1746l-243 -150l75 150h168z" />
    <glyph glyph-name="Icircumflex" unicode="&#xce;" horiz-adv-x="550" 
d="M40 1444h470v-1444h-470v1444zM502 1540l-229 283l-228 -283v-59l229 171l228 -174v62zM100 1384v-1324h350v1324h-350zM118 1576l154 180l160 -172l-160 120z" />
    <glyph glyph-name="icircumflex" unicode="&#xee;" horiz-adv-x="550" 
d="M40 1444h470v-1444h-470v1444zM502 1540l-229 283l-228 -283v-59l229 171l228 -174v62zM100 1384v-1324h350v1324h-350zM118 1576l154 180l160 -172l-160 120z" />
    <glyph glyph-name="Idieresis" unicode="&#xcf;" horiz-adv-x="550" 
d="M40 1444h470v-1444h-470v1444zM123 1764q51 0 83.5 -33.5t32.5 -83.5q-5 -61 -38.5 -92t-83.5 -31q-48 0 -81 33t-33 83q0 56 33 90t87 34zM435 1764q51 0 83.5 -33.5t32.5 -83.5q-5 -61 -38.5 -92t-83.5 -31q-48 0 -81 33t-33 83q0 56 33 90t87 34zM100 1384v-1324h350
v1324h-350zM123 1706q-31 0 -49.5 -18.5t-18.5 -50.5q0 -28 18.5 -46.5t45.5 -18.5q29 0 48 17.5t22 51.5q0 28 -18.5 46.5t-47.5 18.5zM435 1706q-31 0 -49.5 -18.5t-18.5 -50.5q0 -28 18.5 -46.5t45.5 -18.5q29 0 48 17.5t22 51.5q0 28 -18.5 46.5t-47.5 18.5z" />
    <glyph glyph-name="idieresis" unicode="&#xef;" horiz-adv-x="550" 
d="M40 1444h470v-1444h-470v1444zM123 1764q51 0 83.5 -33.5t32.5 -83.5q-5 -61 -38.5 -92t-83.5 -31q-48 0 -81 33t-33 83q0 56 33 90t87 34zM435 1764q51 0 83.5 -33.5t32.5 -83.5q-5 -61 -38.5 -92t-83.5 -31q-48 0 -81 33t-33 83q0 56 33 90t87 34zM100 1384v-1324h350
v1324h-350zM123 1706q-31 0 -49.5 -18.5t-18.5 -50.5q0 -28 18.5 -46.5t45.5 -18.5q29 0 48 17.5t22 51.5q0 28 -18.5 46.5t-47.5 18.5zM435 1706q-31 0 -49.5 -18.5t-18.5 -50.5q0 -28 18.5 -46.5t45.5 -18.5q29 0 48 17.5t22 51.5q0 28 -18.5 46.5t-47.5 18.5z" />
    <glyph glyph-name="Eth" unicode="&#xd0;" horiz-adv-x="1804" 
d="M212 0v542h-254v252h254v650h852q173 0 305 -46t223 -124t151.5 -211t60.5 -346q-11 -197 -66 -335t-146 -218t-222.5 -124t-329.5 -40h-828zM694 1086h273q95 0 154 -39.5t96.5 -109t40.5 -215.5q-10 -160 -46 -221.5t-93 -101t-150 -39.5h-275l-2 248h280v128h-280z
M272 60h768q240 6 343 47t171 104t126 186t64 325q-8 194 -29 251t-54 122t-103 133t-195 114t-299 42h-792v-662l-252 2v-116h252v-548zM754 1031l-2 -235h288v-252h-288l2 -127h207q87 3 128 39t61.5 77.5t31.5 189.5q-8 125 -31 178t-65 90.5t-127 39.5h-205z" />
    <glyph glyph-name="eth" unicode="&#xf0;" horiz-adv-x="1804" 
d="M212 0v542h-254v252h254v650h852q173 0 305 -46t223 -124t151.5 -211t60.5 -346q-11 -197 -66 -335t-146 -218t-222.5 -124t-329.5 -40h-828zM694 1086h273q95 0 154 -39.5t96.5 -109t40.5 -215.5q-10 -160 -46 -221.5t-93 -101t-150 -39.5h-275l-2 248h280v128h-280z
M272 60h768q240 6 343 47t171 104t126 186t64 325q-8 194 -29 251t-54 122t-103 133t-195 114t-299 42h-792v-662l-252 2v-116h252v-548zM754 1031l-2 -235h288v-252h-288l2 -127h207q87 3 128 39t61.5 77.5t31.5 189.5q-8 125 -31 178t-65 90.5t-127 39.5h-205z" />
    <glyph glyph-name="Ntilde" unicode="&#xd1;" horiz-adv-x="1430" 
d="M60 1384v60h470l430 -540v540h470v-60h-410v-538h-95l-420 538h-445zM1430 60v-60h-470l-430 540v-540h-470v60h410v540h95l430 -540h435zM1430 1074v-704h-60v704h60zM120 1074v-704h-60v704h60zM988 1668q-148 -140 -323 51t-322 -79l60 -47q85 167 253 -15t408 50z
M456 1724q102 58 182 -27t131 -112t171 15q-114 -116 -210 -14t-153 118t-121 20z" />
    <glyph glyph-name="ntilde" unicode="&#xf1;" horiz-adv-x="1430" 
d="M60 0v1444h470l430 -540v540h470v-1444h-470l-430 540v-540h-470zM120 1384v-1324h350v540h95l430 -540h375v1324h-350v-538h-95l-420 538h-385zM988 1668q-148 -140 -323 51t-322 -79l60 -47q85 167 253 -15t408 50zM456 1724q102 58 182 -27t131 -112t171 15
q-114 -116 -210 -14t-153 118t-121 20z" />
    <glyph glyph-name="Ograve" unicode="&#xd2;" horiz-adv-x="1677" 
d="M1668 714q0 -237 -99 -404t-286.5 -251t-447.5 -84t-446.5 84.5t-282.5 250t-96 404.5q0 181 55 318.5t161 231.5t260 142.5t349 48.5q259 0 447 -85.5t287 -252t99 -403.5zM203 1796h462l176 -318zM1608 714q-4 218 -95.5 371t-265 232t-412.5 79q-180 0 -322 -45
t-240 -131t-148.5 -212.5t-54.5 -292.5q4 -220 92.5 -372t260.5 -230t412 -78t413 77.5t264.5 231t95.5 370.5zM408 1742l320 -150l-98 150h-222zM486 712q0 380 340 380q216 0 283 -113.5t75 -266.5q-8 -107 -27 -183.5t-96.5 -136t-234.5 -59.5q-202 0 -271 113.5
t-69 265.5zM551 709q0 -127 56 -221.5t223 -94.5q128 0 192 50t80 113t21 153q-5 127 -60.5 221t-232.5 94q-279 0 -279 -315z" />
    <glyph glyph-name="ograve" unicode="&#xf2;" horiz-adv-x="1677" 
d="M1668 714q0 -237 -99 -404t-286.5 -251t-447.5 -84t-446.5 84.5t-282.5 250t-96 404.5q0 181 55 318.5t161 231.5t260 142.5t349 48.5q259 0 447 -85.5t287 -252t99 -403.5zM203 1796h462l176 -318zM1608 714q-4 218 -95.5 371t-265 232t-412.5 79q-180 0 -322 -45
t-240 -131t-148.5 -212.5t-54.5 -292.5q4 -220 92.5 -372t260.5 -230t412 -78t413 77.5t264.5 231t95.5 370.5zM408 1742l320 -150l-98 150h-222zM486 712q0 380 340 380q216 0 283 -113.5t75 -266.5q-8 -107 -27 -183.5t-96.5 -136t-234.5 -59.5q-202 0 -271 113.5
t-69 265.5zM551 709q0 -127 56 -221.5t223 -94.5q128 0 192 50t80 113t21 153q-5 127 -60.5 221t-232.5 94q-279 0 -279 -315z" />
    <glyph glyph-name="Oacute" unicode="&#xd3;" horiz-adv-x="1677" 
d="M1668 714q0 -237 -99 -404t-286.5 -251t-447.5 -84t-446.5 84.5t-282.5 250t-96 404.5q0 181 55 318.5t161 231.5t260 142.5t349 48.5q259 0 447 -85.5t287 -252t99 -403.5zM1311 1796h-462l-176 -318zM1608 714q-4 218 -95.5 371t-265 232t-412.5 79q-180 0 -322 -45
t-240 -131t-148.5 -212.5t-54.5 -292.5q4 -220 92.5 -372t260.5 -230t412 -78t413 77.5t264.5 231t95.5 370.5zM1102 1742l-310 -150l94 150h216zM486 712q0 380 340 380q216 0 283 -113.5t75 -266.5q-8 -107 -27 -183.5t-96.5 -136t-234.5 -59.5q-202 0 -271 113.5
t-69 265.5zM551 709q0 -127 56 -221.5t223 -94.5q128 0 192 50t80 113t21 153q-5 127 -60.5 221t-232.5 94q-279 0 -279 -315z" />
    <glyph glyph-name="oacute" unicode="&#xf3;" horiz-adv-x="1677" 
d="M1668 714q0 -237 -99 -404t-286.5 -251t-447.5 -84t-446.5 84.5t-282.5 250t-96 404.5q0 181 55 318.5t161 231.5t260 142.5t349 48.5q259 0 447 -85.5t287 -252t99 -403.5zM1311 1796h-462l-176 -318zM1608 714q-4 218 -95.5 371t-265 232t-412.5 79q-180 0 -322 -45
t-240 -131t-148.5 -212.5t-54.5 -292.5q4 -220 92.5 -372t260.5 -230t412 -78t413 77.5t264.5 231t95.5 370.5zM1102 1742l-310 -150l94 150h216zM486 712q0 380 340 380q216 0 283 -113.5t75 -266.5q-8 -107 -27 -183.5t-96.5 -136t-234.5 -59.5q-202 0 -271 113.5
t-69 265.5zM551 709q0 -127 56 -221.5t223 -94.5q128 0 192 50t80 113t21 153q-5 127 -60.5 221t-232.5 94q-279 0 -279 -315z" />
    <glyph glyph-name="Ocircumflex" unicode="&#xd4;" horiz-adv-x="1677" 
d="M1668 714q0 -237 -99 -404t-286.5 -251t-447.5 -84t-446.5 84.5t-282.5 250t-96 404.5q0 181 55 318.5t161 231.5t260 142.5t349 48.5q259 0 447 -85.5t287 -252t99 -403.5zM1114 1538l-290 300l-287 -300v-62l290 181l287 -185v66zM1608 714q-4 218 -95.5 371t-265 232
t-412.5 79q-180 0 -322 -45t-240 -131t-148.5 -212.5t-54.5 -292.5q4 -220 92.5 -372t260.5 -230t412 -78t413 77.5t264.5 231t95.5 370.5zM634 1576l190 193l196 -183l-196 127zM486 712q0 380 340 380q216 0 283 -113.5t75 -266.5q-8 -107 -27 -183.5t-96.5 -136
t-234.5 -59.5q-202 0 -271 113.5t-69 265.5zM551 709q0 -127 56 -221.5t223 -94.5q128 0 192 50t80 113t21 153q-5 127 -60.5 221t-232.5 94q-279 0 -279 -315z" />
    <glyph glyph-name="ocircumflex" unicode="&#xf4;" horiz-adv-x="1677" 
d="M1668 714q0 -237 -99 -404t-286.5 -251t-447.5 -84t-446.5 84.5t-282.5 250t-96 404.5q0 181 55 318.5t161 231.5t260 142.5t349 48.5q259 0 447 -85.5t287 -252t99 -403.5zM1114 1538l-290 300l-287 -300v-62l290 181l287 -185v66zM1608 714q-4 218 -95.5 371t-265 232
t-412.5 79q-180 0 -322 -45t-240 -131t-148.5 -212.5t-54.5 -292.5q4 -220 92.5 -372t260.5 -230t412 -78t413 77.5t264.5 231t95.5 370.5zM634 1576l190 193l196 -183l-196 127zM486 712q0 380 340 380q216 0 283 -113.5t75 -266.5q-8 -107 -27 -183.5t-96.5 -136
t-234.5 -59.5q-202 0 -271 113.5t-69 265.5zM551 709q0 -127 56 -221.5t223 -94.5q128 0 192 50t80 113t21 153q-5 127 -60.5 221t-232.5 94q-279 0 -279 -315z" />
    <glyph glyph-name="Otilde" unicode="&#xd5;" horiz-adv-x="1677" 
d="M1668 714q0 -237 -99 -404t-286.5 -251t-447.5 -84t-446.5 84.5t-282.5 250t-96 404.5q0 181 55 318.5t161 231.5t260 142.5t349 48.5q259 0 447 -85.5t287 -252t99 -403.5zM1608 714q-4 218 -95.5 371t-265 232t-412.5 79q-180 0 -322 -45t-240 -131t-148.5 -212.5
t-54.5 -292.5q4 -220 92.5 -372t260.5 -230t412 -78t413 77.5t264.5 231t95.5 370.5zM1120 1668q-148 -140 -323 51t-322 -79l60 -47q85 167 253 -15t408 50zM592 1720q102 58 182 -27t131 -112t171 15q-114 -116 -210 -14t-153 118t-121 20zM486 712q0 380 340 380
q216 0 283 -113.5t75 -266.5q-8 -107 -27 -183.5t-96.5 -136t-234.5 -59.5q-202 0 -271 113.5t-69 265.5zM551 709q0 -127 56 -221.5t223 -94.5q128 0 192 50t80 113t21 153q-5 127 -60.5 221t-232.5 94q-279 0 -279 -315z" />
    <glyph glyph-name="otilde" unicode="&#xf5;" horiz-adv-x="1677" 
d="M1668 714q0 -237 -99 -404t-286.5 -251t-447.5 -84t-446.5 84.5t-282.5 250t-96 404.5q0 181 55 318.5t161 231.5t260 142.5t349 48.5q259 0 447 -85.5t287 -252t99 -403.5zM1608 714q-4 218 -95.5 371t-265 232t-412.5 79q-180 0 -322 -45t-240 -131t-148.5 -212.5
t-54.5 -292.5q4 -220 92.5 -372t260.5 -230t412 -78t413 77.5t264.5 231t95.5 370.5zM1120 1668q-148 -140 -323 51t-322 -79l60 -47q85 167 253 -15t408 50zM592 1720q102 58 182 -27t131 -112t171 15q-114 -116 -210 -14t-153 118t-121 20zM486 712q0 380 340 380
q216 0 283 -113.5t75 -266.5q-8 -107 -27 -183.5t-96.5 -136t-234.5 -59.5q-202 0 -271 113.5t-69 265.5zM551 709q0 -127 56 -221.5t223 -94.5q128 0 192 50t80 113t21 153q-5 127 -60.5 221t-232.5 94q-279 0 -279 -315z" />
    <glyph glyph-name="Odieresis" unicode="&#xd6;" horiz-adv-x="1677" 
d="M1668 714q0 -237 -99 -404t-286.5 -251t-447.5 -84t-446.5 84.5t-282.5 250t-96 404.5q0 181 55 318.5t161 231.5t260 142.5t349 48.5q259 0 447 -85.5t287 -252t99 -403.5zM1123 1764q51 0 83.5 -33.5t32.5 -83.5q-5 -61 -38.5 -92t-83.5 -31q-48 0 -81 33t-33 83
q0 56 33 90t87 34zM563 1764q51 0 83.5 -33.5t32.5 -83.5q-5 -61 -38.5 -92t-83.5 -31q-48 0 -81 33t-33 83q0 56 33 90t87 34zM1608 714q-4 218 -95.5 371t-265 232t-412.5 79q-180 0 -322 -45t-240 -131t-148.5 -212.5t-54.5 -292.5q4 -220 92.5 -372t260.5 -230t412 -78
t413 77.5t264.5 231t95.5 370.5zM1123 1706q-31 0 -49.5 -18.5t-18.5 -50.5q0 -28 18.5 -46.5t45.5 -18.5q29 0 48 17.5t22 51.5q0 28 -18.5 46.5t-47.5 18.5zM563 1710q-31 0 -49.5 -18.5t-18.5 -50.5q0 -28 18.5 -46.5t45.5 -18.5q29 0 48 17.5t22 51.5q0 28 -18.5 46.5
t-47.5 18.5zM486 712q0 380 340 380q216 0 283 -113.5t75 -266.5q-8 -107 -27 -183.5t-96.5 -136t-234.5 -59.5q-202 0 -271 113.5t-69 265.5zM551 709q0 -127 56 -221.5t223 -94.5q128 0 192 50t80 113t21 153q-5 127 -60.5 221t-232.5 94q-279 0 -279 -315z" />
    <glyph glyph-name="odieresis" unicode="&#xf6;" horiz-adv-x="1677" 
d="M1668 714q0 -237 -99 -404t-286.5 -251t-447.5 -84t-446.5 84.5t-282.5 250t-96 404.5q0 181 55 318.5t161 231.5t260 142.5t349 48.5q259 0 447 -85.5t287 -252t99 -403.5zM1123 1764q51 0 83.5 -33.5t32.5 -83.5q-5 -61 -38.5 -92t-83.5 -31q-48 0 -81 33t-33 83
q0 56 33 90t87 34zM563 1764q51 0 83.5 -33.5t32.5 -83.5q-5 -61 -38.5 -92t-83.5 -31q-48 0 -81 33t-33 83q0 56 33 90t87 34zM1608 714q-4 218 -95.5 371t-265 232t-412.5 79q-180 0 -322 -45t-240 -131t-148.5 -212.5t-54.5 -292.5q4 -220 92.5 -372t260.5 -230t412 -78
t413 77.5t264.5 231t95.5 370.5zM1123 1706q-31 0 -49.5 -18.5t-18.5 -50.5q0 -28 18.5 -46.5t45.5 -18.5q29 0 48 17.5t22 51.5q0 28 -18.5 46.5t-47.5 18.5zM563 1710q-31 0 -49.5 -18.5t-18.5 -50.5q0 -28 18.5 -46.5t45.5 -18.5q29 0 48 17.5t22 51.5q0 28 -18.5 46.5
t-47.5 18.5zM486 712q0 380 340 380q216 0 283 -113.5t75 -266.5q-8 -107 -27 -183.5t-96.5 -136t-234.5 -59.5q-202 0 -271 113.5t-69 265.5zM551 709q0 -127 56 -221.5t223 -94.5q128 0 192 50t80 113t21 153q-5 127 -60.5 221t-232.5 94q-279 0 -279 -315z" />
    <glyph glyph-name="Oslash" unicode="&#xd8;" horiz-adv-x="1677" 
d="M566 424q58 -82 260 -90q156 0 234 59t97 136t27 183q-8 140 -30 156zM1446 1274l110 88l112 -150l-88 -78q88 -183 88 -420t-99 -404t-286.5 -251t-447.5 -84t-555 149l-168 -132l-110 148l134 108q-126 227 -126 466q0 181 55 318.5t161 231.5t260 142.5t349 48.5
q259 0 410 -71.5t201 -109.5zM1094 980q-50 112 -268 112q-340 0 -340 -380q4 -154 42 -168zM1606 714q-4 218 -110 418l102 86l-52 72l-104 -86q-23 34 -196.5 113t-412.5 79q-180 0 -322 -45t-240 -131t-148.5 -212.5t-54.5 -292.5q4 -220 134 -481l-122 -98l44 -62
l154 122q315 -161 555 -161t413 77.5t264.5 231t95.5 370.5zM558 642l-6 68q0 314 278 314q174 0 178 -42zM1114 766l6 -56q-2 -92 -18 -155t-80 -112t-192 -49q-144 0 -152 38z" />
    <glyph glyph-name="oslash" unicode="&#xf8;" horiz-adv-x="1677" 
d="M566 424q58 -82 260 -90q156 0 234 59t97 136t27 183q-8 140 -30 156zM1446 1274l110 88l112 -150l-88 -78q88 -183 88 -420t-99 -404t-286.5 -251t-447.5 -84t-555 149l-168 -132l-110 148l134 108q-126 227 -126 466q0 181 55 318.5t161 231.5t260 142.5t349 48.5
q259 0 410 -71.5t201 -109.5zM1094 980q-50 112 -268 112q-340 0 -340 -380q4 -154 42 -168zM1606 714q-4 218 -110 418l102 86l-52 72l-104 -86q-23 34 -196.5 113t-412.5 79q-180 0 -322 -45t-240 -131t-148.5 -212.5t-54.5 -292.5q4 -220 134 -481l-122 -98l44 -62
l154 122q315 -161 555 -161t413 77.5t264.5 231t95.5 370.5zM558 642l-6 68q0 314 278 314q174 0 178 -42zM1114 766l6 -56q-2 -92 -18 -155t-80 -112t-192 -49q-144 0 -152 38z" />
    <glyph glyph-name="Ugrave" unicode="&#xd9;" horiz-adv-x="1494" 
d="M530 1444v-854q-6 -146 56 -203t194 -61q106 2 177 62t67 202v854h470v-60h-410v-794q6 -152 -66 -231t-238 -93q-174 6 -244 84t-66 240v794h-410v60h470zM1434 1074h60v-477q-3 -180 -59.5 -287.5t-143 -179.5t-217 -112t-290.5 -44q-133 3 -270.5 36.5t-240 105.5
t-158 185t-55.5 295v478h60v-478q10 -178 55 -267t136 -157t219 -101t254 -37q150 6 274 45t199 104t124 154t53 260v477zM279 1796h462l176 -318zM476 1742l320 -150l-98 150h-222z" />
    <glyph glyph-name="ugrave" unicode="&#xf9;" horiz-adv-x="1494" 
d="M530 1444v-854q-6 -146 56 -203t194 -61q106 2 177 62t67 202v854h470v-847q-3 -180 -59.5 -287.5t-143 -179.5t-217 -112t-290.5 -44q-133 3 -270.5 36.5t-240 105.5t-158 185t-55.5 295v848h470zM120 1384v-788q10 -178 55 -267t136 -157t219 -101t254 -37
q150 6 274 45t199 104t124 154t53 260v787h-350v-794q6 -152 -66 -231t-238 -93q-174 6 -244 84t-66 240v794h-350zM279 1796h462l176 -318zM476 1742l320 -150l-98 150h-222z" />
    <glyph glyph-name="Uacute" unicode="&#xda;" horiz-adv-x="1494" 
d="M530 1444v-854q-6 -146 56 -203t194 -61q106 2 177 62t67 202v854h470v-60h-410v-794q6 -152 -66 -231t-238 -93q-174 6 -244 84t-66 240v794h-410v60h470zM1434 1074h60v-477q-3 -180 -59.5 -287.5t-143 -179.5t-217 -112t-290.5 -44q-133 3 -270.5 36.5t-240 105.5
t-158 185t-55.5 295v478h60v-478q10 -178 55 -267t136 -157t219 -101t254 -37q150 6 274 45t199 104t124 154t53 260v477zM1347 1796h-462l-176 -318zM1146 1742l-310 -150l94 150h216z" />
    <glyph glyph-name="uacute" unicode="&#xfa;" horiz-adv-x="1494" 
d="M530 1444v-854q-6 -146 56 -203t194 -61q106 2 177 62t67 202v854h470v-847q-3 -180 -59.5 -287.5t-143 -179.5t-217 -112t-290.5 -44q-133 3 -270.5 36.5t-240 105.5t-158 185t-55.5 295v848h470zM120 1384v-788q10 -178 55 -267t136 -157t219 -101t254 -37
q150 6 274 45t199 104t124 154t53 260v787h-350v-794q6 -152 -66 -231t-238 -93q-174 6 -244 84t-66 240v794h-350zM1347 1796h-462l-176 -318zM1146 1742l-310 -150l94 150h216z" />
    <glyph glyph-name="Ucircumflex" unicode="&#xdb;" horiz-adv-x="1494" 
d="M530 1444v-854q-6 -146 56 -203t194 -61q106 2 177 62t67 202v854h470v-60h-410v-794q6 -152 -66 -231t-238 -93q-174 6 -244 84t-66 240v794h-410v60h470zM1434 1074h60v-477q-3 -180 -59.5 -287.5t-143 -179.5t-217 -112t-290.5 -44q-133 3 -270.5 36.5t-240 105.5
t-158 185t-55.5 295v478h60v-478q10 -178 55 -267t136 -157t219 -101t254 -37q150 6 274 45t199 104t124 154t53 260v477zM1066 1538l-290 300l-287 -300v-62l290 181l287 -185v66zM586 1576l190 193l196 -183l-196 127z" />
    <glyph glyph-name="ucircumflex" unicode="&#xfb;" horiz-adv-x="1494" 
d="M530 1444v-854q-6 -146 56 -203t194 -61q106 2 177 62t67 202v854h470v-847q-3 -180 -59.5 -287.5t-143 -179.5t-217 -112t-290.5 -44q-133 3 -270.5 36.5t-240 105.5t-158 185t-55.5 295v848h470zM120 1384v-788q10 -178 55 -267t136 -157t219 -101t254 -37
q150 6 274 45t199 104t124 154t53 260v787h-350v-794q6 -152 -66 -231t-238 -93q-174 6 -244 84t-66 240v794h-350zM1066 1538l-290 300l-287 -300v-62l290 181l287 -185v66zM586 1576l190 193l196 -183l-196 127z" />
    <glyph glyph-name="Udieresis" unicode="&#xdc;" horiz-adv-x="1494" 
d="M530 1444v-854q-6 -146 56 -203t194 -61q106 2 177 62t67 202v854h470v-60h-410v-794q6 -152 -66 -231t-238 -93q-174 6 -244 84t-66 240v794h-410v60h470zM1434 1074h60v-477q-3 -180 -59.5 -287.5t-143 -179.5t-217 -112t-290.5 -44q-133 3 -270.5 36.5t-240 105.5
t-158 185t-55.5 295v478h60v-478q10 -178 55 -267t136 -157t219 -101t254 -37q150 6 274 45t199 104t124 154t53 260v477zM547 1764q51 0 83.5 -33.5t32.5 -83.5q-5 -61 -38.5 -92t-83.5 -31q-48 0 -81 33t-33 83q0 56 33 90t87 34zM547 1706q-31 0 -49.5 -18.5t-18.5 -50.5
q0 -28 18.5 -46.5t45.5 -18.5q29 0 48 17.5t22 51.5q0 28 -18.5 46.5t-47.5 18.5zM1023 1760q51 0 83.5 -33.5t32.5 -83.5q-5 -61 -38.5 -92t-83.5 -31q-48 0 -81 33t-33 83q0 56 33 90t87 34zM1023 1702q-31 0 -49.5 -18.5t-18.5 -50.5q0 -28 18.5 -46.5t45.5 -18.5
q29 0 48 17.5t22 51.5q0 28 -18.5 46.5t-47.5 18.5z" />
    <glyph glyph-name="udieresis" unicode="&#xfc;" horiz-adv-x="1494" 
d="M530 1444v-854q-6 -146 56 -203t194 -61q106 2 177 62t67 202v854h470v-847q-3 -180 -59.5 -287.5t-143 -179.5t-217 -112t-290.5 -44q-133 3 -270.5 36.5t-240 105.5t-158 185t-55.5 295v848h470zM120 1384v-788q10 -178 55 -267t136 -157t219 -101t254 -37
q150 6 274 45t199 104t124 154t53 260v787h-350v-794q6 -152 -66 -231t-238 -93q-174 6 -244 84t-66 240v794h-350zM547 1764q51 0 83.5 -33.5t32.5 -83.5q-5 -61 -38.5 -92t-83.5 -31q-48 0 -81 33t-33 83q0 56 33 90t87 34zM1023 1760q51 0 83.5 -33.5t32.5 -83.5
q-5 -61 -38.5 -92t-83.5 -31q-48 0 -81 33t-33 83q0 56 33 90t87 34zM547 1706q-31 0 -49.5 -18.5t-18.5 -50.5q0 -28 18.5 -46.5t45.5 -18.5q29 0 48 17.5t22 51.5q0 28 -18.5 46.5t-47.5 18.5zM1023 1702q-31 0 -49.5 -18.5t-18.5 -50.5q0 -28 18.5 -46.5t45.5 -18.5
q29 0 48 17.5t22 51.5q0 28 -18.5 46.5t-47.5 18.5z" />
    <glyph glyph-name="Yacute" unicode="&#xdd;" horiz-adv-x="1264" 
d="M60 1384v60h306l294 -446l298 446h306v-60h-266l-303 -446h-65l-296 446h-274zM1264 1074v-60h-26l-340 -484v-530h-472v530l-340 484h-26v60h60l368 -526v-488h352v488l364 526h60zM1235 1796h-462l-176 -318zM1030 1742l-310 -150l94 150h216z" />
    <glyph glyph-name="yacute" unicode="&#xfd;" horiz-adv-x="1614" 
d="M1732 1444l-630 -914v-530h-472v530l-630 914h570l294 -446l298 446h570zM116 1384l576 -836v-488h352v488l578 836h-420l-303 -446h-65l-296 446h-422zM1431 1796h-462l-176 -318zM1222 1742l-310 -150l94 150h216z" />
    <glyph glyph-name="Thorn" unicode="&#xde;" horiz-adv-x="1394" 
d="M530 272v-272h-470v60h410v272h302q160 -2 259 25t160 71t96 115t45 187q-10 122 -45 193t-98 115t-167 71t-552 19v256h-410v60h470v-253q400 1 509 -27t184 -79t121.5 -135.5t46.5 -220.5q-8 -126 -53 -214t-119 -139t-181 -79t-268 -26zM530 849v-259l223 -1
q76 0 123 14.5t76.5 36.5t38.5 79q-3 53 -33.5 77.5t-79.5 38.5t-127 14h-221zM754 518h-284v400h280q86 0 144 -15.5t107 -60t47 -124.5q-8 -90 -50 -126t-107 -55t-137 -19zM120 1074v-704h-60v704h60z" />
    <glyph glyph-name="thorn" unicode="&#xfe;" horiz-adv-x="1394" 
d="M530 272v-272h-470v1444h470v-253q400 1 509 -27t184 -79t121.5 -135.5t46.5 -220.5q-8 -126 -53 -214t-119 -139t-181 -79t-268 -26zM120 1384v-1324h350v272h302q160 -2 259 25t160 71t96 115t45 187q-10 122 -45 193t-98 115t-167 71t-552 19v256h-350zM754 518h-284
v400h280q86 0 144 -15.5t107 -60t47 -124.5q-8 -90 -50 -126t-107 -55t-137 -19zM530 849v-259l223 -1q76 0 123 14.5t76.5 36.5t38.5 79q-3 53 -33.5 77.5t-79.5 38.5t-127 14h-221z" />
    <glyph glyph-name="germandbls" unicode="&#xdf;" horiz-adv-x="1628" 
d="M558 559v-855h-498v1740h985q237 -2 360.5 -82t149.5 -268q9 -144 -61 -226t-231 -135v-4q79 -10 146 -42.5t112.5 -77t70.5 -100.5t25 -110q0 -171 -87.5 -259t-225 -115t-333.5 -25h-287v292h195q83 -3 145 36t64 97q4 62 -52.5 98t-156.5 36l-235 1v316l264 -1
q29 0 61 30.5t34 81.5q-4 59 -38.5 83t-57.5 24h-349v-535zM120 -236h378l-1 1390h411q32 0 88.5 -41t66.5 -126q-3 -73 -56 -126t-99 -46l-204 1v-196l175 -1q118 4 196.5 -51t72.5 -143q-10 -87 -89.5 -140.5t-180.5 -52.5h-132v-172h225q193 -4 323.5 22t198.5 104.5
t64 212.5q0 53 -23 98t-59 80t-93 63.5t-189 56.5v65q171 48 241.5 121t60.5 211q-22 158 -129 222.5t-321 67.5h-925v-1620z" />
    <glyph glyph-name="ydieresis" unicode="&#xff;" horiz-adv-x="1614" 
d="M1732 1444l-630 -914v-530h-472v530l-630 914h570l294 -446l298 446h570zM116 1384l576 -836v-488h352v488l578 836h-420l-303 -446h-65l-296 446h-422zM651 1764q51 0 83.5 -33.5t32.5 -83.5q-5 -61 -38.5 -92t-83.5 -31q-48 0 -81 33t-33 83q0 56 33 90t87 34z
M651 1706q-31 0 -49.5 -18.5t-18.5 -50.5q0 -28 18.5 -46.5t45.5 -18.5q29 0 48 17.5t22 51.5q0 28 -18.5 46.5t-47.5 18.5zM1115 1768q51 0 83.5 -33.5t32.5 -83.5q-5 -61 -38.5 -92t-83.5 -31q-48 0 -81 33t-33 83q0 56 33 90t87 34zM1115 1710q-31 0 -49.5 -18.5
t-18.5 -50.5q0 -28 18.5 -46.5t45.5 -18.5q29 0 48 17.5t22 51.5q0 28 -18.5 46.5t-47.5 18.5z" />
    <glyph glyph-name="OE" unicode="&#x152;" horiz-adv-x="2062" 
d="M832 1384q-184 -2 -322 -44t-228 -131t-148.5 -205.5t-49.5 -287.5q0 -224 82 -357t255 -218t335 -81h1306v-60h-1306q-176 -8 -360 86t-280 244t-92 386q-8 180 52 310t164 224t252 142t340 52h1168v-430h-768v-166h496v-252h-496v-166h830v-60h-890v284h496v134h-496
v286h768v310h-1108zM486 712q0 380 402 384v-766q-264 3 -333 116.5t-69 265.5zM551 709q0 -127 56 -221.5t223 -94.5v631q-279 0 -279 -315z" />
    <glyph glyph-name="oe" unicode="&#x153;" horiz-adv-x="2062" 
d="M832 1384q-184 -2 -322 -44t-228 -131t-148.5 -205.5t-49.5 -287.5q0 -224 82 -357t255 -218t335 -81h1246v310h-830v284h496v134h-496v286h768v310h-1108zM486 712q0 380 402 384v-766q-264 3 -333 116.5t-69 265.5zM551 709q0 -127 56 -221.5t223 -94.5v631
q-279 0 -279 -315zM2062 430v-430h-1306q-176 -8 -360 86t-280 244t-92 386q-8 180 52 310t164 224t252 142t340 52h1168v-430h-768v-166h496v-252h-496v-166h830z" />
    <glyph glyph-name="Scaron" unicode="&#x160;" horiz-adv-x="1135" 
d="M1135 1444v-60h-727q-208 -4 -262 -222t286 -534q252 -248 -128 -258h-244v60h244q283 -8 72 158q-348 320 -296 588t328 268h727zM1135 1014h-291q-257 8 -76 -142q324 -284 318 -552t-318 -320h-708v60h708q264 56 256 288t-352 524q-160 208 172 202h291v-60z
M922 1824l-290 -366l-287 366v76l290 -221l287 225v-80zM436 1776l196 -243l192 231l-192 -166z" />
    <glyph glyph-name="scaron" unicode="&#x161;" horiz-adv-x="1135" 
d="M1135 1444v-430h-291q-257 8 -76 -142q324 -284 318 -552t-318 -320h-768v430h304q283 -8 72 158q-348 320 -296 588t328 268h727zM922 1824l-290 -366l-287 366v76l290 -221l287 225v-80zM60 370v-310h708q264 56 256 288t-352 524q-160 208 172 202h231v310h-667
q-208 -4 -262 -222t286 -534q252 -248 -128 -258h-244zM436 1776l196 -243l192 231l-192 -166z" />
    <glyph glyph-name="Ydieresis" unicode="&#x178;" horiz-adv-x="1264" 
d="M60 1384v60h306l294 -446l298 446h306v-60h-266l-303 -446h-65l-296 446h-274zM1264 1074v-60h-26l-340 -484v-530h-472v530l-340 484h-26v60h60l368 -526v-488h352v488l364 526h60zM435 1760q51 0 83.5 -33.5t32.5 -83.5q-5 -61 -38.5 -92t-83.5 -31q-48 0 -81 33
t-33 83q0 56 33 90t87 34zM891 1764q51 0 83.5 -33.5t32.5 -83.5q-5 -61 -38.5 -92t-83.5 -31q-48 0 -81 33t-33 83q0 56 33 90t87 34zM435 1702q-31 0 -49.5 -18.5t-18.5 -50.5q0 -28 18.5 -46.5t45.5 -18.5q29 0 48 17.5t22 51.5q0 28 -18.5 46.5t-47.5 18.5zM891 1706
q-31 0 -49.5 -18.5t-18.5 -50.5q0 -28 18.5 -46.5t45.5 -18.5q29 0 48 17.5t22 51.5q0 28 -18.5 46.5t-47.5 18.5z" />
    <glyph glyph-name="Zcaron" unicode="&#x17d;" horiz-adv-x="1380" 
d="M60 1384v60h1320v-430l-699 -584h699v-60h-759v85l699 578v351h-1260zM1380 0h-1320v430l699 584h-699v60h755v-85l-695 -586v-343h1260v-60zM942 1824l-290 -366l-287 366v76l290 -221l287 225v-80zM456 1776l196 -243l192 231l-192 -166z" />
    <glyph glyph-name="zcaron" unicode="&#x17e;" horiz-adv-x="1380" 
d="M60 1444h1320v-430l-699 -584h699v-430h-1320v430l699 584h-699v430zM942 1824l-290 -366l-287 366v76l290 -221l287 225v-80zM456 1776l196 -243l192 231l-192 -166zM120 1384v-310h695v-85l-695 -586v-343h1200v310h-699v85l699 578v351h-1200z" />
    <glyph glyph-name="questiondown" unicode="&#xbf;" horiz-adv-x="1176" 
d="M516 874q2 -48 -49 -107t-145 -136t-133 -131t-45 -152q10 -104 83 -171t187 -93t232 -24q114 -2 212 18t174 56v204q-24 -10 -84 -23t-144 -15q-120 -6 -191 26t-73 118q2 84 56 127t98 76t79 90t47 137h-304zM893 1083h-446v385h446v-385zM834 1135v277h-331v-277h331z
M465 933h410q-8 -143 -47 -218.5t-89.5 -113t-94 -71.5t-43.5 -86t52 -68t150 -16q69 0 150.5 20.5t138.5 47.5v-353q-118 -37 -221.5 -56t-224.5 -19q-122 0 -250 28.5t-220 106.5t-92 213q0 104 48.5 172.5t147 148.5t142 132t43.5 132z" />
    <glyph glyph-name="paragraph" unicode="&#xb6;" horiz-adv-x="2048" 
d="M499 2515l379 39l20 -64l-167 -119l-106 -10l-70 -738q80 208 191.5 285t260.5 97t303 2.5t234.5 -69.5t136 -166t71.5 -233l20 -40l5 -183l81 -649l-283 -148l5 -25l30 -25q316 79 334 -10l122 -19q69 -80 -1 -114l-1445 -40l-485 -59q-75 54 182 173l313 25l-45 49
l-20 50l40 59l5 25l-141 64l60 644v164q-40 10 -60 69l86 807l-66 30l-25 84zM1302 1482v-173l10 -20l-5 -827l81 -5l5 891h15v124zM918 1492l-35 -99l96 -20l20 114zM764 1400l15 90l-30 2l-20 -92h35zM610 1423h10l8 37l-71 5v-37zM1557 1462l-20 -106l40 2l36 97z
M1618 1361l73 -3l33 45l7 44l-80 15zM544 1395l335 -34l213 -42l-15 -728l-21 191q-22 210 -47 289t-80.5 138.5t-111 88t-116.5 32.5t-144 8zM1432 1315l292 41l10 -72q-66 -20 -101 -35t-60.5 -54.5t-58.5 -121t-63 -324.5l-23 -213zM524 1415l13 -96q63 2 132.5 -1.5
t129 -34.5t113.5 -88t77 -128t78 -528l23 -13l18 810l-230 40zM1416 1334l-3 -870l23 3q53 498 94.5 599.5t69.5 133.5t74.5 49.5t72.5 17.5v104zM1067 459q-37 133 -56.5 208t-45 163t-69.5 175t-137 118q-98 -7 -135 -53t-69.5 -126.5t-68.5 -261.5zM1767 648
q-39 280 -72 373t-71 79q-62 -39 -83.5 -86t-30 -93t-29.5 -189l-15 -164l-10 -96l311 163v13zM555 1514l-11 -15l16 -24l121 17l131 12l179 3l298 -12l195 -20l204 -3l66 -27l-5 67q-83 32 -177 46t-233 23t-276 6t-251 -8t-257 -65zM582 1519q140 37 314 42t262.5 5
t205.5 -5t209.5 -19.5t170.5 -44.5l5 -37l-83 20l-270 19l-197 10l-240 5l-172 -2l-142 -13l-85 -14l-5 12zM954 1933q151 -17 233 -21t165.5 -9t100 4t7.5 26t-43 32t-108.5 22.5t-135 7.5t-110 -7.5t-109.5 -54.5zM1443 1883q16 -69 52.5 -87.5t60.5 -23.5t40.5 13.5
t2.5 43.5t-40.5 43.5t-48 21t-67.5 -10.5zM1493 1888q35 -1 61 -19.5t38.5 -41.5t3.5 -30.5t-22 -3.5t-33 9t-41 24.5t-27.5 36.5t20.5 25zM577 2364l-53 -587l71 587h-18zM340 338q-147 -30 -188.5 -51t-24 -34.5t52 -8.5t71 27t89.5 67zM2077 370q-20 50 -60.5 47.5
t-74.5 -22.5t-96 -28.5t-107 -20t78.5 -2.5t259.5 26zM353 145q28 -140 -56 -168l56 -28q56 224 169 252q280 0 308 -112q56 -225 -140 -309h-168l-141 141q-28 -169 -393 -141l-28 281h-84v140q477 28 477 -56zM101 33h112v56h-112v-56zM101 -136l140 28l-28 57h-112v-85z
M578 -136l112 28l-28 197l-140 -28q-29 -140 56 -197zM858 201q365 28 393 -56q28 -140 -56 -168q84 28 84 -85l112 309h197l112 -337v-84l-281 84l-56 -84l-140 56q-112 -84 -365 -56v421zM998 33h113v56h-113v-56zM998 -136l141 28l-28 57h-113v-85zM1447 -51h85l-29 140
l-56 -56v-84zM224 -287h393v-140l-196 -28h140v-84h-112l-56 -169l-113 28l-56 253v140zM1094 -399q56 -225 -140 -309q-281 0 -309 141q-56 140 140 280q281 0 309 -112zM841 -624l113 28l-28 197l-141 -28q-28 -140 56 -197zM1126 -283q112 56 224 -112q0 112 57 112h448
v-140h-112v-140h253q-197 196 -56 280h280v-112l-140 -56q168 -169 0 -253h-449l-28 253l-112 28l-28 -281h-85l-140 141v-141h-112v421z" />
  </font>
</defs>
</svg>
